<?xml version="1.0" encoding="UTF-8" standalone="no"?>
<!-- Created with Inkscape (http://www.inkscape.org/) -->

<svg
   width="129.56245mm"
   height="66.240013mm"
   viewBox="0 0 129.56245 66.240013"
   version="1.1"
   id="svg5"
   inkscape:version="1.1 (35044de2a8, 2021-06-18)"
   sodipodi:docname="Apio-logo.svg"
   xmlns:inkscape="http://www.inkscape.org/namespaces/inkscape"
   xmlns:sodipodi="http://sodipodi.sourceforge.net/DTD/sodipodi-0.dtd"
   xmlns="http://www.w3.org/2000/svg"
   xmlns:svg="http://www.w3.org/2000/svg">
  <sodipodi:namedview
     id="namedview7"
     pagecolor="#ffffff"
     bordercolor="#666666"
     borderopacity="1.0"
     inkscape:pageshadow="2"
     inkscape:pageopacity="0.0"
     inkscape:pagecheckerboard="0"
     inkscape:document-units="mm"
     showgrid="false"
     showguides="true"
     inkscape:guide-bbox="true"
     inkscape:snap-global="false"
     inkscape:zoom="0.32026164"
     inkscape:cx="754.07094"
     inkscape:cy="263.84677"
     inkscape:window-width="1860"
     inkscape:window-height="1016"
     inkscape:window-x="60"
     inkscape:window-y="27"
     inkscape:window-maximized="1"
     inkscape:current-layer="layer1"
     fit-margin-top="0"
     fit-margin-left="0"
     fit-margin-right="0"
     fit-margin-bottom="0" />
  <defs
     id="defs2" />
  <g
     inkscape:label="Layer 1"
     inkscape:groupmode="layer"
     id="layer1"
     transform="translate(-34.907817,-74.790031)">
    <path
       style="fill:#000000;stroke-width:0.264583"
       d="m 146.64283,122.92514 c -5.65268,-1.13461 -10.16851,-5.42157 -11.62276,-11.03373 -0.54307,-2.09577 -0.53773,-5.9161 0.0109,-7.76399 1.51121,-5.090544 5.60988,-9.134134 10.56742,-10.425415 1.9561,-0.5095 5.8909,-0.51659 7.77937,-0.014 2.60886,0.694281 4.76855,1.958731 6.75381,3.954201 4.78275,4.807364 5.66279,11.410134 2.38395,17.886404 -1.03034,2.03511 -4.07413,4.99154 -6.21535,6.03696 -2.88516,1.40865 -6.72188,1.9488 -9.65729,1.3596 z m 6.80847,-5.90112 c 0.80273,-0.39274 2.00022,-1.29213 2.66108,-1.99864 4.7429,-5.07055 3.57054,-12.62864 -2.41479,-15.567904 -1.33549,-0.65584 -1.78633,-0.73589 -4.14434,-0.73589 -2.30584,0 -2.83691,0.0896 -4.1328,0.69722 -2.0924,0.981114 -3.52603,2.379944 -4.52974,4.419814 -0.7826,1.59049 -0.86189,1.97373 -0.8563,4.13871 0.005,2.01935 0.1143,2.6187 0.71009,3.901 1.29004,2.77656 2.99736,4.43751 5.66667,5.51278 1.89832,0.76469 5.06425,0.59962 7.04013,-0.36709 z m -76.261585,5.10414 c 0,-0.61142 8.48705,-27.086124 8.97583,-27.999415 0.27684,-0.51727 0.51935,-0.56654 2.78854,-0.56654 1.73715,0 2.59316,0.10784 2.84353,0.35821 0.51171,0.511701 9.294915,27.864375 9.105785,28.357235 -0.12853,0.33495 -0.57915,0.39554 -2.476545,0.33295 l -2.31943,-0.0765 -0.66146,-1.85296 c -0.3638,-1.01913 -0.75778,-2.0014 -0.87551,-2.18281 -0.30673,-0.47267 -10.11308,-0.47267 -10.41981,0 -0.11773,0.18141 -0.51171,1.16368 -0.87551,2.18281 l -0.66146,1.85296 -2.71198,0.0754 c -2.60424,0.0724 -2.71198,0.0533 -2.71198,-0.48133 z m 15.3115,-9.60687 c 0.39676,-0.47806 -2.54954,-9.26614 -3.14309,-9.37506 -0.56297,-0.10331 -3.5591,8.86796 -3.13306,9.3813 0.41347,0.4982 5.86199,0.49279 6.27615,-0.006 z m 12.595085,9.82472 c -0.0718,-0.1876 -0.0996,-6.71093 -0.0618,-14.4963 l 0.0688,-14.155215 5.02708,0.003 c 4.94969,0.003 5.05007,0.014 6.52009,0.733411 2.91681,1.42741 4.7199,4.16019 4.926,7.465914 0.16428,2.63496 -0.58357,4.54257 -2.55292,6.51191 -1.88023,1.88024 -3.70579,2.61621 -6.48945,2.61621 -1.29085,0 -2.03974,0.11772 -2.2334,0.35106 -0.18553,0.22355 -0.31743,2.31386 -0.36313,5.75469 l -0.0718,5.40362 -2.31943,0.0765 c -1.70629,0.0563 -2.35395,-0.0137 -2.45002,-0.26459 z m 8.60315,-16.51981 c 1.15901,-0.2318 2.53607,-1.65936 2.76191,-2.86318 0.23215,-1.23746 -0.57657,-3.006074 -1.66988,-3.651904 -1.0556,-0.62356 -4.3977,-0.6515 -4.63284,-0.0387 -0.3056,0.796374 -0.17635,6.074484 0.1569,6.407744 0.34577,0.34577 2.02334,0.41819 3.38391,0.14607 z m 11.92372,16.33849 c -0.37044,-0.69217 -0.38673,-26.962524 -0.0173,-27.934145 0.25806,-0.67876 0.29647,-0.68788 2.57968,-0.61253 l 2.31773,0.0765 v 14.419795 14.41979 l -2.3004,0.0762 c -2.06245,0.0684 -2.32928,0.0222 -2.57968,-0.44563 z"
       id="path1936"
       sodipodi:nodetypes="sscssssssssssssscssssssssscsssscssscssccccccsssssscsccssssssssssccccss" />
    <g
       id="g22105"
       transform="translate(-185.96572,-51.334607)">
      <rect
         style="fill:#94b033;fill-opacity:1;stroke:#000000;stroke-width:3.43957;stroke-linecap:round;stroke-linejoin:round;stroke-miterlimit:4;stroke-dasharray:none"
         id="rect21917"
         width="16.786045"
         height="36.971806"
         x="-187.88219"
         y="194.83458"
         transform="matrix(-0.9518359,0.30660793,0.30660793,0.9518359,0,0)" />
      <rect
         style="fill:#94b033;fill-opacity:1;stroke:#000000;stroke-width:3.43957;stroke-linecap:round;stroke-linejoin:round;stroke-miterlimit:4;stroke-dasharray:none"
         id="rect18198"
         width="16.786045"
         height="36.971806"
         x="271.70346"
         y="47.140709"
         transform="rotate(17.854927)" />
      <rect
         style="fill:#94b033;fill-opacity:1;stroke:#000000;stroke-width:3.43957;stroke-linecap:round;stroke-linejoin:miter;stroke-miterlimit:4;stroke-dasharray:none"
         id="rect2153"
         width="16.786045"
         height="9.9877005"
         x="232.85188"
         y="180.65717" />
      <rect
         style="fill:#94b033;fill-opacity:1;stroke:#000000;stroke-width:3.43957;stroke-linecap:round;stroke-linejoin:miter;stroke-miterlimit:4;stroke-dasharray:none"
         id="rect17997"
         width="16.786045"
         height="15.771562"
         x="232.85188"
         y="164.73215" />
      <path
         style="fill:#94b033;fill-opacity:1;stroke:none;stroke-width:0.264583px;stroke-linecap:butt;stroke-linejoin:miter;stroke-opacity:1"
         d="m 235.33118,161.29067 -0.57802,1.71854 h 2.51771 z"
         id="path18481" />
    </g>
  </g>
</svg>
