<?xml version="1.0" encoding="UTF-8" standalone="no"?>
<!-- Created with Inkscape (http://www.inkscape.org/) -->

<svg
   xmlns:dc="http://purl.org/dc/elements/1.1/"
   xmlns:cc="http://creativecommons.org/ns#"
   xmlns:rdf="http://www.w3.org/1999/02/22-rdf-syntax-ns#"
   xmlns:svg="http://www.w3.org/2000/svg"
   xmlns="http://www.w3.org/2000/svg"
   xmlns:sodipodi="http://sodipodi.sourceforge.net/DTD/sodipodi-0.dtd"
   xmlns:inkscape="http://www.inkscape.org/namespaces/inkscape"
   width="126.49599mm"
   height="74.820541mm"
   viewBox="0 0 448.21415 265.11215"
   id="svg2"
   version="1.1"
   inkscape:version="0.91 r13725"
   sodipodi:docname="apio.svg">
  <defs
     id="defs4">
    <clipPath
       id="clipPath5190"
       clipPathUnits="userSpaceOnUse">
      <path
         inkscape:connector-curvature="0"
         id="path5192"
         d="m 0,841.89 595.28,0 L 595.28,0 0,0 0,841.89 Z" />
    </clipPath>
  </defs>
  <sodipodi:namedview
     id="base"
     pagecolor="#ffffff"
     bordercolor="#666666"
     borderopacity="1.0"
     inkscape:pageopacity="0.0"
     inkscape:pageshadow="2"
     inkscape:zoom="0.9899495"
     inkscape:cx="170.45425"
     inkscape:cy="130.11392"
     inkscape:document-units="px"
     inkscape:current-layer="layer1"
     showgrid="false"
     fit-margin-top="0"
     fit-margin-left="0"
     fit-margin-right="0"
     fit-margin-bottom="0"
     inkscape:window-width="1920"
     inkscape:window-height="1016"
     inkscape:window-x="0"
     inkscape:window-y="27"
     inkscape:window-maximized="1" />
  <metadata
     id="metadata7">
    <rdf:RDF>
      <cc:Work
         rdf:about="">
        <dc:format>image/svg+xml</dc:format>
        <dc:type
           rdf:resource="http://purl.org/dc/dcmitype/StillImage" />
        <dc:title></dc:title>
      </cc:Work>
    </rdf:RDF>
  </metadata>
  <g
     inkscape:label="Layer 1"
     inkscape:groupmode="layer"
     id="layer1"
     transform="translate(2762.6622,694.88564)">
    <g
       transform="matrix(2.5254318,0,0,-2.5254318,-3290.1901,629.49205)"
       inkscape:label="apio_logo"
       id="g5184">
      <g
         id="g5186">
        <g
           clip-path="url(#clipPath5190)"
           id="g5188">
          <g
             transform="translate(314.4006,515.6674)"
             id="g5194">
            <path
               inkscape:connector-curvature="0"
               id="path5196"
               style="fill:#00673a;fill-opacity:1;fill-rule:nonzero;stroke:none"
               d="m 0,0 c -0.096,-0.048 -0.177,-0.116 -0.177,-0.116 0.025,-0.003 0.071,-0.095 0.136,-0.263 -0.047,0.098 -0.094,0.193 -0.136,0.263 L -0.808,0.107 C -0.809,0.135 -0.81,0.16 -0.811,0.187 -0.479,0.11 -0.199,0.046 0,0 m 11.92,-70.776 c -0.206,1.951 -0.393,10.581 -0.547,20.651 0.618,2.04 0.522,5.098 0.419,8.83 -0.048,1.735 0.107,3.069 0.494,4.556 -0.099,-0.57 -0.185,-1.073 -0.251,-1.473 0.297,1.378 0.967,3.563 1.741,5.881 1.902,5.06 5.269,13.603 10.548,32.985 0,0 -0.099,-0.015 -0.24,-0.038 -0.006,0.003 -0.018,0.004 -0.027,0.006 0.024,0.009 0.054,0.023 0.074,0.029 C 23.052,0.635 17.328,0.536 16.324,0.273 L 16.232,0.268 16.22,0.229 C 16.211,0.223 16.188,0.218 16.182,0.213 16.087,0.108 15.794,-0.689 15.466,-1.7 c -0.124,-0.038 -0.211,-0.065 -0.211,-0.065 -0.081,-0.05 -0.175,-0.164 -0.269,-0.299 -0.039,-0.04 -0.07,-0.08 -0.1,-0.121 l -0.346,-0.29 c -0.209,-0.639 -0.943,-3.752 -1.874,-7.826 0.177,1.213 0.346,2.388 0.508,3.511 -0.177,-1.464 -0.312,-2.515 -0.312,-2.515 L 14.45,2.186 c 0.103,0.732 0.162,1.157 0.162,1.157 l -0.002,0 0.011,0.079 C 14.549,3.527 12.56,3.211 10.677,2.828 c 0.117,1.132 0.21,2.039 0.273,2.654 0.064,0.483 0.097,0.797 0.09,0.887 C 10.971,7.286 5.949,6.648 5.949,6.648 5.912,6.61 5.911,6.577 5.925,6.545 L 5.838,6.181 C 5.299,5.254 5.125,2.123 5.17,-1.779 L 4.751,5.435 4.143,5.72 l 0,0 -4.32,2.029 c 0,0 0.44,-4.208 1.047,-9.891 C 0.536,-0.903 0.322,-0.123 0.303,-0.07 0.253,0.068 0.138,0.06 0.033,0.016 -0.166,0.078 -0.462,0.172 -0.816,0.283 -0.878,1.655 -0.913,2.509 -0.913,2.509 -1.257,2.997 -4.555,1.825 -4.965,1.579 -5.02,1.546 -5.012,1.505 -4.961,1.459 -4.951,1.367 -4.927,1.223 -4.894,1.047 -4.838,0.67 -4.757,0.216 -4.675,0.02 c 0.682,-3.001 2.423,-9.683 3.742,-14.675 2.059,-8.443 4.206,-17.54 4.558,-20.162 0.704,-5.244 1.407,-11.104 1.688,-13.88 0.016,-0.157 0.046,-0.277 0.085,-0.371 -0.113,-9.609 -0.186,-18.123 -0.11,-19.287 0.185,-2.824 -2.026,-16.949 -0.921,-22.195 0.186,-0.886 0.483,-1.556 0.839,-2.082 0.008,-0.269 0.079,-0.743 0.464,-1.017 0.233,-0.165 0.297,-0.355 0.3,-0.517 -0.114,-0.024 -0.25,-0.179 -0.237,-0.265 0.023,-0.142 0.615,-0.409 1.395,-0.594 1.031,-0.276 2.624,-0.407 4.486,0.47 0,0 -0.307,0.571 0.031,0.939 0.223,0.245 0.495,0.721 0.568,1.047 3.136,4.437 0.185,17.258 -0.293,21.793" />
          </g>
          <g
             transform="translate(314.4006,515.6674)"
             id="g5198">
            <path
               inkscape:connector-curvature="0"
               id="path5200"
               style="fill:none;stroke:#00673a;stroke-width:2;stroke-linecap:round;stroke-linejoin:round;stroke-miterlimit:10;stroke-dasharray:none;stroke-opacity:1"
               d="m 0,0 c -0.096,-0.048 -0.177,-0.116 -0.177,-0.116 0.025,-0.003 0.071,-0.095 0.136,-0.263 -0.047,0.098 -0.094,0.193 -0.136,0.263 L -0.808,0.107 C -0.809,0.135 -0.81,0.16 -0.811,0.187 -0.479,0.11 -0.199,0.046 0,0 Z m 11.92,-70.776 c -0.206,1.951 -0.393,10.581 -0.547,20.651 0.618,2.04 0.522,5.098 0.419,8.83 -0.048,1.735 0.107,3.069 0.494,4.556 -0.099,-0.57 -0.185,-1.073 -0.251,-1.473 0.297,1.378 0.967,3.563 1.741,5.881 1.902,5.06 5.269,13.603 10.548,32.985 0,0 -0.099,-0.015 -0.24,-0.038 -0.006,0.003 -0.018,0.004 -0.027,0.006 0.024,0.009 0.054,0.023 0.074,0.029 C 23.052,0.635 17.328,0.536 16.324,0.273 L 16.232,0.268 16.22,0.229 C 16.211,0.223 16.188,0.218 16.182,0.213 16.087,0.108 15.794,-0.689 15.466,-1.7 c -0.124,-0.038 -0.211,-0.065 -0.211,-0.065 -0.081,-0.05 -0.175,-0.164 -0.269,-0.299 -0.039,-0.04 -0.07,-0.08 -0.1,-0.121 l -0.346,-0.29 c -0.209,-0.639 -0.943,-3.752 -1.874,-7.826 0.177,1.213 0.346,2.388 0.508,3.511 -0.177,-1.464 -0.312,-2.515 -0.312,-2.515 L 14.45,2.186 c 0.103,0.732 0.162,1.157 0.162,1.157 l -0.002,0 0.011,0.079 C 14.549,3.527 12.56,3.211 10.677,2.828 c 0.117,1.132 0.21,2.039 0.273,2.654 0.064,0.483 0.097,0.797 0.09,0.887 C 10.971,7.286 5.949,6.648 5.949,6.648 5.912,6.61 5.911,6.577 5.925,6.545 L 5.838,6.181 C 5.299,5.254 5.125,2.123 5.17,-1.779 L 4.751,5.435 4.143,5.72 l 0,0 -4.32,2.029 c 0,0 0.44,-4.208 1.047,-9.891 C 0.536,-0.903 0.322,-0.123 0.303,-0.07 0.253,0.068 0.138,0.06 0.033,0.016 -0.166,0.078 -0.462,0.172 -0.816,0.283 -0.878,1.655 -0.913,2.509 -0.913,2.509 -1.257,2.997 -4.555,1.825 -4.965,1.579 -5.02,1.546 -5.012,1.505 -4.961,1.459 -4.951,1.367 -4.927,1.223 -4.894,1.047 -4.838,0.67 -4.757,0.216 -4.675,0.02 c 0.682,-3.001 2.423,-9.683 3.742,-14.675 2.059,-8.443 4.206,-17.54 4.558,-20.162 0.704,-5.244 1.407,-11.104 1.688,-13.88 0.016,-0.157 0.046,-0.277 0.085,-0.371 -0.113,-9.609 -0.186,-18.123 -0.11,-19.287 0.185,-2.824 -2.026,-16.949 -0.921,-22.195 0.186,-0.886 0.483,-1.556 0.839,-2.082 0.008,-0.269 0.079,-0.743 0.464,-1.017 0.233,-0.165 0.297,-0.355 0.3,-0.517 -0.114,-0.024 -0.25,-0.179 -0.237,-0.265 0.023,-0.142 0.615,-0.409 1.395,-0.594 1.031,-0.276 2.624,-0.407 4.486,0.47 0,0 -0.307,0.571 0.031,0.939 0.223,0.245 0.495,0.721 0.568,1.047 3.136,4.437 0.185,17.258 -0.293,21.793 z" />
          </g>
          <g
             transform="translate(338.5317,516.3186)"
             id="g5202">
            <path
               inkscape:connector-curvature="0"
               id="path5204"
               style="fill:#00673a;fill-opacity:1;fill-rule:nonzero;stroke:none"
               d="M 0,0 C 0.113,0.002 0.193,0.003 0.193,0.003 0.174,0.039 0.1,0.031 0,0" />
          </g>
          <g
             transform="translate(338.5317,516.3186)"
             id="g5206">
            <path
               inkscape:connector-curvature="0"
               id="path5208"
               style="fill:none;stroke:#00673a;stroke-width:2;stroke-linecap:round;stroke-linejoin:round;stroke-miterlimit:10;stroke-dasharray:none;stroke-opacity:1"
               d="M 0,0 C 0.113,0.002 0.193,0.003 0.193,0.003 0.174,0.039 0.1,0.031 0,0 Z" />
          </g>
          <g
             transform="translate(326.4355,477.455)"
             id="g5210">
            <path
               inkscape:connector-curvature="0"
               id="path5212"
               style="fill:#00673a;fill-opacity:1;fill-rule:nonzero;stroke:none"
               d="m 0,0 c -0.09,-0.415 -0.153,-0.775 -0.166,-1.021 0,0 0.06,0.383 0.166,1.021" />
          </g>
          <g
             transform="translate(326.4355,477.455)"
             id="g5214">
            <path
               inkscape:connector-curvature="0"
               id="path5216"
               style="fill:none;stroke:#00673a;stroke-width:2;stroke-linecap:round;stroke-linejoin:round;stroke-miterlimit:10;stroke-dasharray:none;stroke-opacity:1"
               d="m 0,0 c -0.09,-0.415 -0.153,-0.775 -0.166,-1.021 0,0 0.06,0.383 0.166,1.021 z" />
          </g>
          <g
             transform="translate(320.3498,522.3156)"
             id="g5218">
            <path
               inkscape:connector-curvature="0"
               id="path5220"
               style="fill:#8ec549;fill-opacity:1;fill-rule:nonzero;stroke:none"
               d="m 0,0 c 0,0 3.77,-0.344 5.091,-0.279 0,0 -2.766,-27.532 -3.691,-29.993 -0.925,-2.461 -3.362,26.621 -1.511,29.805 L 0,0 Z" />
          </g>
          <g
             transform="translate(323.2278,518.668)"
             id="g5222">
            <path
               inkscape:connector-curvature="0"
               id="path5224"
               style="fill:#8ec549;fill-opacity:1;fill-rule:nonzero;stroke:none"
               d="m 0,0 -1.836,-1.372 c 0,0 -0.894,-16.765 -0.939,-19.068 C -2.819,-22.744 0.447,-0.098 0,0" />
          </g>
          <g
             transform="translate(320.3498,522.3156)"
             id="g5226">
            <path
               inkscape:connector-curvature="0"
               id="path5228"
               style="fill:#8ec549;fill-opacity:1;fill-rule:nonzero;stroke:none"
               d="M 0,0 C 0,0 5.021,0.638 5.091,-0.279 5.16,-1.196 1.177,-24.823 1.177,-24.823 c 0,0 1.566,20.833 1.566,21.617 0,0.785 1.562,2.602 0.892,2.699 C 2.962,-0.409 -0.439,-0.45 0,0" />
          </g>
          <g
             transform="translate(319.6115,423.2267)"
             id="g5230">
            <path
               inkscape:connector-curvature="0"
               id="path5232"
               style="fill:#8ec549;fill-opacity:1;fill-rule:nonzero;stroke:none"
               d="M 0,0 C -0.01,-0.1 -0.062,-0.838 0.459,-1.208 0.98,-1.577 0.674,-2.08 0.674,-2.08 c 0,0 2.452,-1.578 5.729,-0.034 0,0 -0.306,0.571 0.031,0.939 0.337,0.369 0.797,1.276 0.49,1.377 C 6.618,0.303 0.092,1.007 0,0" />
          </g>
          <g
             transform="translate(320.1995,496.2608)"
             id="g5234">
            <path
               inkscape:connector-curvature="0"
               id="path5236"
               style="fill:#8ec549;fill-opacity:1;fill-rule:nonzero;stroke:none"
               d="m 0,0 5.147,7.414 c 0,0 0.421,-53.537 0.974,-58.783 0.553,-5.246 4.422,-21.59 -1.658,-23.204 0,0 -2.693,-1.023 -4.508,0.68 -0.605,0.568 -1.111,1.438 -1.387,2.75 -1.105,5.246 1.106,19.371 0.921,22.195 C -0.695,-46.123 0,0 0,0" />
          </g>
          <g
             transform="translate(321.8098,517.3604)"
             id="g5238">
            <path
               inkscape:connector-curvature="0"
               id="path5240"
               style="fill:#8ec549;fill-opacity:1;fill-rule:nonzero;stroke:none"
               d="m 0,0 7.203,1.65 c 0,0 -5.355,-38.468 -6.342,-40.319 -0.985,-1.85 -3.379,6.168 -3.379,6.168 L 0,0 Z" />
          </g>
          <g
             transform="translate(322.5558,521.6104)"
             id="g5242">
            <path
               inkscape:connector-curvature="0"
               id="path5244"
               style="fill:#8ec549;fill-opacity:1;fill-rule:nonzero;stroke:none"
               d="M 0,0 C 0,0 -1.969,0.637 -2.059,0.049 -2.147,-0.54 -2.596,-10.98 -2.596,-10.98 c 0,0 0.627,10.539 0.941,10.685 C -1.342,-0.147 0,0 0,0" />
          </g>
          <g
             transform="translate(338.7248,516.3215)"
             id="g5246">
            <path
               inkscape:connector-curvature="0"
               id="path5248"
               style="fill:#8ec549;fill-opacity:1;fill-rule:nonzero;stroke:none"
               d="m 0,0 c 0,0 -7.832,-0.104 -8.142,-0.441 -0.309,-0.34 -2.681,-7.907 -1.65,-6.608 C -8.761,-5.749 -0.264,0.499 0,0" />
          </g>
          <g
             transform="translate(330.633,515.9357)"
             id="g5250">
            <path
               inkscape:connector-curvature="0"
               id="path5252"
               style="fill:#8ec549;fill-opacity:1;fill-rule:nonzero;stroke:none"
               d="M 0,0 5.724,0.282 -0.102,-0.338 0,0 Z" />
          </g>
          <g
             transform="translate(309.4358,517.2462)"
             id="g5254">
            <path
               inkscape:connector-curvature="0"
               id="path5256"
               style="fill:#8ec549;fill-opacity:1;fill-rule:nonzero;stroke:none"
               d="m 0,0 c 0,0 3.514,1.351 4.052,0.931 0,0 0.844,-20.442 1.611,-23.302 0,0 -5.797,21.61 -5.663,22.371" />
          </g>
          <g
             transform="translate(321.5452,479.925)"
             id="g5258">
            <path
               inkscape:connector-curvature="0"
               id="path5260"
               style="fill:#8ec549;fill-opacity:1;fill-rule:nonzero;stroke:none"
               d="m 0,0 -2.394,41.178 -4.927,2.313 c 0,0 3.801,-36.396 4.506,-39.79 C -2.112,0.309 0,-2.005 0,0" />
          </g>
          <g
             transform="translate(317.9464,519.6008)"
             id="g5262">
            <path
               inkscape:connector-curvature="0"
               id="path5264"
               style="fill:#8ec549;fill-opacity:1;fill-rule:nonzero;stroke:none"
               d="M 0,0 2.059,-22.501 C 2.059,-22.501 -0.403,0 -0.314,0 -0.225,0 0,0.245 0,0" />
          </g>
          <g
             transform="translate(321.968,485.7852)"
             id="g5266">
            <path
               inkscape:connector-curvature="0"
               id="path5268"
               style="fill:#8ec549;fill-opacity:1;fill-rule:nonzero;stroke:none"
               d="m 0,0 c 0,0 -6.055,26.989 -7.744,29.766 l -4.788,1.695 c 0,0 7.885,-31.152 8.59,-36.396 0.704,-5.244 1.407,-11.104 1.688,-13.879 0.282,-2.777 4.366,4.626 4.225,6.939 C 1.83,-9.563 1.83,-0.617 0,0" />
          </g>
          <g
             transform="translate(320.7003,474.9904)"
             id="g5270">
            <path
               inkscape:connector-curvature="0"
               id="path5272"
               style="fill:#8ec549;fill-opacity:1;fill-rule:nonzero;stroke:none"
               d="m 0,0 c 0,0 0.423,5.706 1.69,9.715 1.267,4.011 6.336,26.836 6.758,28.532 0.423,1.696 9.576,3.084 9.576,3.084 C 8.632,6.847 5.29,6.674 5.492,-0.618 5.633,-5.707 5.773,-9.563 4.084,-11.259 2.394,-12.956 -0.282,-8.175 0,0" />
          </g>
          <g
             transform="translate(320.3507,443.6887)"
             id="g5274">
            <path
               inkscape:connector-curvature="0"
               id="path5276"
               style="fill:#8ec549;fill-opacity:1;fill-rule:nonzero;stroke:none"
               d="m 0,0 c 0,0 0.055,-1.97 -0.436,-4.596 -0.491,-2.627 -1.961,-14.266 0.818,-16.595 0,0 -1.445,3.461 -1.309,6.208 C -0.763,-11.699 0.163,-0.657 0,0" />
          </g>
          <g
             transform="translate(325.3654,457.1183)"
             id="g5278">
            <path
               inkscape:connector-curvature="0"
               id="path5280"
               style="fill:#8ec549;fill-opacity:1;fill-rule:nonzero;stroke:none"
               d="m 0,0 c 0.136,0.116 0.108,-9.252 0.381,-11.998 0.272,-2.745 1.908,-13.907 1.744,-15.937 -0.164,-2.029 -0.316,-7.038 -2.833,-6.984 0,0 1.96,1.135 2.342,6.566 0.382,5.432 -0.491,9.074 -0.654,9.91 C 0.816,-17.608 -1.199,-1.015 0,0" />
          </g>
          <g
             transform="translate(325.093,441.5988)"
             id="g5282">
            <path
               inkscape:connector-curvature="0"
               id="path5284"
               style="fill:#8ec549;fill-opacity:1;fill-rule:nonzero;stroke:none"
               d="m 0,0 c 0,0 1.416,-9.251 1.416,-11.102 0,-1.85 -0.109,-7.64 -2.726,-8.476 0,0 -0.544,0.239 -0.053,0.477 0.491,0.24 1.61,1.291 2.071,3.462 0.545,2.568 0.209,7.705 -0.055,9.611 C 0.381,-4.059 0,0 0,0" />
          </g>
          <g
             transform="translate(320.8419,441.9572)"
             id="g5286">
            <path
               inkscape:connector-curvature="0"
               id="path5288"
               style="fill:#8ec549;fill-opacity:1;fill-rule:nonzero;stroke:none"
               d="m 0,0 c 0,0 -2.181,-16.057 0.6,-19.22 0,0 0.38,-0.239 0.326,0.06 -0.054,0.298 -1.197,2.685 -1.362,4.237 C -0.71,-12.355 0,0 0,0" />
          </g>
          <g
             transform="translate(324.5481,436.2276)"
             id="g5290">
            <path
               inkscape:connector-curvature="0"
               id="path5292"
               style="fill:#8ec549;fill-opacity:1;fill-rule:nonzero;stroke:none"
               d="m 0,0 c 0,0 1.525,-11.342 -1.2,-13.61 0,0 -0.326,-0.179 -0.218,0.299 C -1.31,-12.834 0.926,-11.461 0,0" />
          </g>
          <g
             transform="translate(322.2043,422.2599)"
             id="g5294">
            <path
               inkscape:connector-curvature="0"
               id="path5296"
               style="fill:#8ec549;fill-opacity:1;fill-rule:nonzero;stroke:none"
               d="m 0,0 c 0,0 -2.234,1.611 -0.545,11.162 0,0 -0.322,-7.239 0,-8.417 C -0.055,0.954 0.599,0.06 0,0" />
          </g>
          <g
             transform="translate(323.4026,433.5411)"
             id="g5298">
            <path
               inkscape:connector-curvature="0"
               id="path5300"
               style="fill:#8ec549;fill-opacity:1;fill-rule:nonzero;stroke:none"
               d="m 0,0 c 0,0 1.146,-8.417 -0.49,-10.625 0,0 -0.327,-0.179 -0.055,0.418 C -0.272,-9.61 0.382,-5.134 0,0" />
          </g>
          <g
             transform="translate(320.3664,463.7852)"
             id="g5302">
            <path
               inkscape:connector-curvature="0"
               id="path5304"
               style="fill:#8ec549;fill-opacity:1;fill-rule:nonzero;stroke:none"
               d="m 0,0 c 0,0 0,-18.011 -0.133,-21.068 0,0 0.709,18.98 0.133,21.068" />
          </g>
          <g
             transform="translate(321.386,462.1349)"
             id="g5306">
            <path
               inkscape:connector-curvature="0"
               id="path5308"
               style="fill:#8ec549;fill-opacity:1;fill-rule:nonzero;stroke:none"
               d="m 0,0 c 0,0 -0.399,-19.613 0,-22.38 0,0 0.178,-0.389 0.178,-0.098 C 0.178,-22.187 -0.267,-0.485 0,0" />
          </g>
          <g
             transform="translate(322.3606,462.6202)"
             id="g5310">
            <path
               inkscape:connector-curvature="0"
               id="path5312"
               style="fill:#8ec549;fill-opacity:1;fill-rule:nonzero;stroke:none"
               d="m 0,0 c 0,0 -0.044,-20.826 -0.044,-21.943 0,0 0.443,21.555 0.044,21.943" />
          </g>
          <g
             transform="translate(323.8673,462.0861)"
             id="g5314">
            <path
               inkscape:connector-curvature="0"
               id="path5316"
               style="fill:#8ec549;fill-opacity:1;fill-rule:nonzero;stroke:none"
               d="m 0,0 c 0,0 -0.31,-22.04 0.621,-23.836 0,0 0.133,-0.049 0.088,0.242 C 0.666,-23.303 -0.487,-8.447 0,0" />
          </g>
          <g
             transform="translate(324.5764,463.9308)"
             id="g5318">
            <path
               inkscape:connector-curvature="0"
               id="path5320"
               style="fill:#8ec549;fill-opacity:1;fill-rule:nonzero;stroke:none"
               d="m 0,0 c 0,0 0,-19.612 0.267,-20.584 0,0 0.132,-0.097 0.177,0.194 C 0.488,-20.099 0,0 0,0" />
          </g>
          <g
             transform="translate(329.5471,513.7003)"
             id="g5322">
            <path
               inkscape:connector-curvature="0"
               id="path5324"
               style="fill:#8ec549;fill-opacity:1;fill-rule:nonzero;stroke:none"
               d="m 0,0 1.104,0.696 c 0,0 -2.649,-5.893 -7.256,-27.176 -0.653,-3.007 -1.46,-4.962 -1.998,-7.234 0,0 6.829,31.023 7.544,33.206 L 0,0 Z" />
          </g>
          <g
             transform="translate(314.2238,515.551)"
             id="g5326">
            <path
               inkscape:connector-curvature="0"
               id="path5328"
               style="fill:#8ec549;fill-opacity:1;fill-rule:nonzero;stroke:none"
               d="M 0,0 C 0,0 8.469,-29.91 8.167,-30.846 L 7.936,-32.32 c 0,0 -6.753,32.674 -10.593,33.179 L 0,0 Z" />
          </g>
          <g
             transform="translate(322.5695,479.2852)"
             id="g5330">
            <path
               inkscape:connector-curvature="0"
               id="path5332"
               style="fill:#8ec549;fill-opacity:1;fill-rule:nonzero;stroke:none"
               d="M 0,0 C 0,0 8.582,33.645 8.85,34.386 8.962,34.698 9.455,35.05 9.455,35.05 9.455,35.05 2.183,8.895 0,0" />
          </g>
          <g
             transform="translate(323.1428,479.3272)"
             id="g5334">
            <path
               inkscape:connector-curvature="0"
               id="path5336"
               style="fill:#8ec549;fill-opacity:1;fill-rule:nonzero;stroke:none"
               d="m 0,0 c 0,0 8.582,33.644 8.85,34.386 0.112,0.311 0.605,0.663 0.605,0.663 C 9.455,35.049 2.183,8.895 0,0" />
          </g>
          <g
             transform="translate(337.0587,515.9971)"
             id="g5338">
            <path
               inkscape:connector-curvature="0"
               id="path5340"
               style="fill:#8ec549;fill-opacity:1;fill-rule:nonzero;stroke:none"
               d="m 0,0 1.666,0.324 c 0,0 -6.272,-21.433 -7.242,-23.822 -0.971,-2.391 -5.092,-13.676 -5.213,-16.065 0,0 1.7,10.899 3.039,13.203 C -6.611,-24.401 2.06,0.133 0,0" />
          </g>
          <g
             transform="translate(334.7346,514.3898)"
             id="g5342">
            <path
               inkscape:connector-curvature="0"
               id="path5344"
               style="fill:#8ec549;fill-opacity:1;fill-rule:nonzero;stroke:none"
               d="m 0,0 c 0,0 -6.789,-23.233 -7.03,-25.49 0,0 7.272,25.224 8.121,25.623 L 0,0 Z" />
          </g>
          <g
             transform="translate(336.2092,514.67)"
             id="g5346">
            <path
               inkscape:connector-curvature="0"
               id="path5348"
               style="fill:#8ec549;fill-opacity:1;fill-rule:nonzero;stroke:none"
               d="M 0,0 -6.545,-20.977 0.607,0 0,0 Z" />
          </g>
          <g
             transform="translate(310.3908,515.5988)"
             id="g5350">
            <path
               inkscape:connector-curvature="0"
               id="path5352"
               style="fill:#8ec549;fill-opacity:1;fill-rule:nonzero;stroke:none"
               d="m 0,0 c 0,0 5.092,-17.923 6.425,-24.029 0.978,-4.483 2.666,-13.011 2.546,-15.268 0,0 -2.899,14.852 -3.032,15.798 C 5.455,-20.047 -0.605,-0.132 0,0" />
          </g>
          <g
             transform="translate(316.6916,521.6104)"
             id="g5354">
            <path
               inkscape:connector-curvature="0"
               id="path5356"
               style="fill:#8ec549;fill-opacity:1;fill-rule:nonzero;stroke:none"
               d="m 0,0 c 0,0 -1.636,0.746 -2.045,1.195 l 1.318,-11.052 c 0,0 -1.318,10.504 -1.045,10.454 C -1.499,0.548 -0.408,-0.1 0,0" />
          </g>
          <g
             transform="translate(321.7336,517.5656)"
             id="g5358">
            <path
               inkscape:connector-curvature="0"
               id="path5360"
               style="fill:#8ec549;fill-opacity:1;fill-rule:nonzero;stroke:none"
               d="M 0,0 C 0,0 -0.109,-0.825 0.065,-0.698 0.559,-0.339 7.425,1.324 7.288,1.523 7.152,1.723 0.167,0.418 0,0" />
          </g>
          <g
             transform="translate(328.0705,518.134)"
             id="g5362">
            <path
               inkscape:connector-curvature="0"
               id="path5364"
               style="fill:#8ec549;fill-opacity:1;fill-rule:nonzero;stroke:none"
               d="m 0,0 c 0,0 -5.241,-26.152 -5.146,-26.822 0,0 5.381,26.668 5.664,27.029 C 0.801,0.567 0,0.207 0,0" />
          </g>
          <g
             transform="translate(326.9885,517.5157)"
             id="g5366">
            <path
               inkscape:connector-curvature="0"
               id="path5368"
               style="fill:#8ec549;fill-opacity:1;fill-rule:nonzero;stroke:none"
               d="m 0,0 c 0,0 -4.312,-24.236 -4.218,-24.907 0,0 4.452,24.752 4.735,25.113 C 0.8,0.566 0,0.206 0,0" />
          </g>
          <g
             transform="translate(325.4348,516.9484)"
             id="g5370">
            <path
               inkscape:connector-curvature="0"
               id="path5372"
               style="fill:#8ec549;fill-opacity:1;fill-rule:nonzero;stroke:none"
               d="m 0,0 c 0,0 -3.254,-26.114 -3.16,-26.785 0,0 3.394,26.631 3.678,26.991 C 0.8,0.567 0,0.206 0,0" />
          </g>
          <g
             transform="translate(322.1808,516.1212)"
             id="g5374">
            <path
               inkscape:connector-curvature="0"
               id="path5376"
               style="fill:#8ec549;fill-opacity:1;fill-rule:nonzero;stroke:none"
               d="m 0,0 c 0,0 -1.505,-18.027 -1.458,-19.263 l 0.142,-1.236 c 0,0 1.316,20.446 1.928,21.013 C 0.612,0.514 0,0.257 0,0" />
          </g>
          <g
             transform="translate(312.1594,514.8165)"
             id="g5378">
            <path
               inkscape:connector-curvature="0"
               id="path5380"
               style="fill:#8ec549;fill-opacity:1;fill-rule:nonzero;stroke:none"
               d="M 0,0 C 0,0 0.225,0.163 0.448,-0.082 0.672,-0.328 9.101,-28.758 9.175,-30.392 9.175,-30.392 0.97,-1.471 0,0" />
          </g>
          <g
             transform="translate(310.9661,515.4698)"
             id="g5382">
            <path
               inkscape:connector-curvature="0"
               id="path5384"
               style="fill:#8ec549;fill-opacity:1;fill-rule:nonzero;stroke:none"
               d="M 0,0 C 0,0 0.225,0.163 0.447,-0.082 0.672,-0.327 8.056,-23.366 8.131,-24.999 8.131,-24.999 0.971,-1.471 0,0" />
          </g>
          <g
             transform="translate(318.0529,520.5344)"
             id="g5386">
            <path
               inkscape:connector-curvature="0"
               id="path5388"
               style="fill:#8ec549;fill-opacity:1;fill-rule:nonzero;stroke:none"
               d="m 0,0 0.746,0.082 c 0,0 1.491,-22.957 1.268,-23.773 0,0 -1.045,23.61 -2.014,23.691" />
          </g>
          <g
             transform="translate(313.4875,518.1768)"
             id="g5390">
            <path
               inkscape:connector-curvature="0"
               id="path5392"
               style="fill:#8ec549;fill-opacity:1;fill-rule:nonzero;stroke:none"
               d="m 0,0 c 0,0 -2.727,-1.05 -2.612,-1.174 0.268,-0.295 2.148,-1.079 1.611,-0.883 -0.537,0.197 -3.461,0.881 -3.051,1.126 C -3.642,-0.684 -0.344,0.487 0,0" />
          </g>
          <g
             transform="translate(329.6555,513.9025)"
             id="g5394">
            <path
               inkscape:connector-curvature="0"
               id="path5396"
               style="fill:#8ec549;fill-opacity:1;fill-rule:nonzero;stroke:none"
               d="m 0,0 c 0,0 8.712,2.711 8.866,2.372 0,0 -9.433,-3.105 -9.639,-3.557 C -0.98,-1.638 -0.361,-0.225 0,0" />
          </g>
          <g
             transform="translate(315.7863,520.7921)"
             id="g5398">
            <path
               inkscape:connector-curvature="0"
               id="path5400"
               style="fill:#8ec549;fill-opacity:1;fill-rule:nonzero;stroke:none"
               d="M 0,0 C 0,0 1.959,-15.812 2.011,-16.319 2.011,-16.319 0.361,0 0,0" />
          </g>
          <g
             transform="translate(314.2238,515.551)"
             id="g5402">
            <path
               inkscape:connector-curvature="0"
               id="path5404"
               style="fill:#8ec549;fill-opacity:1;fill-rule:nonzero;stroke:none"
               d="M 0,0 C 0,0 0.377,0.329 0.479,0.047 0.583,-0.235 6.15,-20.96 6.203,-22.371 6.203,-22.371 0.396,-0.048 0,0" />
          </g>
          <g
             transform="translate(325.6632,476.4181)"
             id="g5406">
            <path
               inkscape:connector-curvature="0"
               id="path5408"
               style="fill:#8ec549;fill-opacity:1;fill-rule:nonzero;stroke:none"
               d="m 0,0 c 0,0 0.419,-6.008 0.326,-7.483 -0.094,-1.477 0,-5.498 -2.185,-5.193 0,0 0.333,-0.04 1.255,1.476 C 0.512,-9.367 0.187,-0.561 0,0" />
          </g>
          <g
             transform="translate(318.5442,521.3878)"
             id="g5410">
            <path
               inkscape:connector-curvature="0"
               id="path5412"
               style="fill:#8ec549;fill-opacity:1;fill-rule:nonzero;stroke:none"
               d="M 0,0 0.607,-0.285 1.22,-12.925 0,0 Z" />
          </g>
          <g
             transform="translate(328.0178,518.5861)"
             id="g5414">
            <path
               inkscape:connector-curvature="0"
               id="path5416"
               style="fill:#8ec549;fill-opacity:1;fill-rule:nonzero;stroke:none"
               d="m 0,0 1.004,0.503 -1.759,-12.727 c 0,0 1.452,11.332 1.104,11.524 C 0,-0.509 0,0 0,0" />
          </g>
          <g
             transform="translate(329.7033,513.1105)"
             id="g5418">
            <path
               inkscape:connector-curvature="0"
               id="path5420"
               style="fill:#8ec549;fill-opacity:1;fill-rule:nonzero;stroke:none"
               d="m 0,0 c 0,0 -4.068,-15.278 -4.185,-16.424 0,0 5.232,16.806 5.58,16.934 C 1.744,0.637 0.232,0.255 0,0" />
          </g>
          <g
             transform="translate(309.4358,517.2462)"
             id="g5422">
            <path
               inkscape:connector-curvature="0"
               id="path5424"
               style="fill:#8ec549;fill-opacity:1;fill-rule:nonzero;stroke:none"
               d="m 0,0 c 0,0 0.215,-1.844 0.39,-1.652 0.174,0.191 0,1.146 0.233,1.082 0.231,-0.064 4.645,-1.078 4.645,-1.078 0,0 -5.228,1.651 -5.268,1.648" />
          </g>
          <g
             transform="translate(325.0539,485.3546)"
             id="g5426">
            <path
               inkscape:connector-curvature="0"
               id="path5428"
               style="fill:#8ec549;fill-opacity:1;fill-rule:nonzero;stroke:none"
               d="m 0,0 c 0,0 -1.918,-6.239 -1.744,-8.404 0,0 1.279,7.767 1.744,8.404" />
          </g>
          <g
             transform="translate(320.637,522.087)"
             id="g5430">
            <path
               inkscape:connector-curvature="0"
               id="path5432"
               style="fill:#8ec549;fill-opacity:1;fill-rule:nonzero;stroke:none"
               d="m 0,0 c 0,0 -0.466,-0.382 -0.466,-0.572 0,0 3.953,0.51 4.592,0.445 C 4.766,-0.19 0.464,0.128 0,0" />
          </g>
          <g
             transform="translate(320.1339,421.2365)"
             id="g5434">
            <path
               inkscape:connector-curvature="0"
               id="path5436"
               style="fill:#8ec549;fill-opacity:1;fill-rule:nonzero;stroke:none"
               d="m 0,0 c -0.02,0.129 0.298,0.44 0.371,0.178 0.071,-0.263 0.191,-0.209 0.286,-0.184 0.096,0.027 0.215,-0.183 0.215,-0.183 0,0 0.287,-0.158 0.383,-0.105 0.097,0.053 0.072,-0.131 0.216,-0.131 0.143,0 0.239,0.157 0.406,0.078 0.168,-0.078 0.359,-0.131 0.526,-0.104 0.168,0.026 0.312,0.053 0.503,0 0.192,-0.053 0.287,-0.079 0.383,0 0.097,0.079 0.407,0.183 0.647,0.131 0.238,-0.052 0.287,-0.027 0.429,0.052 0.145,0.079 0.193,0.079 0.312,0.027 0.119,-0.053 0.168,0.052 0.287,0.131 0.119,0.079 0.143,-0.079 0.264,0.025 0.119,0.106 0.142,0.368 0.214,0.263 0.073,-0.105 0.288,0 0.288,-0.131 l 0,-0.132 c 0,0 -1.34,-0.707 -2.751,-0.707 C 1.566,-0.792 0.037,-0.23 0,0" />
          </g>
          <g
             transform="translate(250.2595,449.073)"
             id="g5438">
            <path
               inkscape:connector-curvature="0"
               id="path5440"
               style="fill:#00673a;fill-opacity:1;fill-rule:nonzero;stroke:none"
               d="m 0,0 c -2.147,9.056 -4.344,17.119 -6.528,23.971 -2.188,6.86 -4.818,13.27 -7.815,19.052 l -0.409,0 c -3,-5.788 -5.629,-12.197 -7.814,-19.052 C -24.752,17.12 -26.948,9.056 -29.094,0 L 0,0 Z m 4.309,-28.763 -0.01,0.115 c -0.556,6.705 -1.587,13.993 -3.065,21.663 l -31.559,0 c -0.187,-1.158 -0.462,-2.835 -0.824,-5.032 -0.375,-2.263 -0.674,-4.124 -0.899,-5.583 -0.228,-1.486 -0.473,-3.26 -0.729,-5.272 -0.262,-2.056 -0.469,-3.999 -0.617,-5.776 l -0.009,-0.115 -7.831,0 0.014,0.139 c 3.316,31.227 11.026,57.831 22.916,79.074 l 0.035,0.064 7.443,0 0.036,-0.064 C 1.098,29.207 8.808,2.603 12.126,-28.624 l 0.014,-0.139 -7.831,0 z" />
          </g>
          <g
             transform="translate(235.5832,491.9716)"
             id="g5442">
            <path
               inkscape:connector-curvature="0"
               id="path5444"
               style="fill:#d1d3d4;fill-opacity:1;fill-rule:nonzero;stroke:none"
               d="m 0,0 0.257,0 c 2.98,-5.759 5.594,-12.139 7.772,-18.965 2.171,-6.809 4.354,-14.818 6.489,-23.809 l -28.778,0 c 2.134,8.992 4.317,17 6.489,23.809 C -5.596,-12.144 -2.982,-5.764 0,0 m 3.924,7.74 -0.147,0 -7.296,0 -0.147,0 -0.071,-0.128 C -15.635,-13.646 -23.35,-40.266 -26.668,-71.51 l -0.029,-0.277 0.278,0 7.577,0 0.23,0 0.019,0.23 c 0.147,1.775 0.355,3.717 0.616,5.77 0.256,2.011 0.501,3.784 0.729,5.269 0.224,1.459 0.523,3.319 0.898,5.582 0.351,2.131 0.621,3.774 0.808,4.927 l 31.349,0 c 1.467,-7.628 2.491,-14.877 3.044,-21.548 l 0.019,-0.23 0.23,0 7.577,0 0.278,0 -0.029,0.277 C 23.607,-40.266 15.892,-13.646 3.995,7.612 L 3.924,7.74 Z m -18.5,-50.764 29.41,0 c -2.171,9.167 -4.36,17.212 -6.567,24.135 C 6.059,-11.967 3.44,-5.587 0.41,0.25 l -0.562,0 c -3.031,-5.837 -5.65,-12.217 -7.857,-19.139 -2.209,-6.923 -4.398,-14.968 -6.567,-24.135 M 3.777,7.49 c 11.936,-21.328 19.569,-47.671 22.9,-79.027 l -7.577,0 c -0.562,6.773 -1.591,14.033 -3.087,21.778 l -31.768,0 c -0.188,-1.16 -0.468,-2.872 -0.842,-5.136 -0.374,-2.265 -0.674,-4.125 -0.898,-5.585 -0.224,-1.459 -0.469,-3.218 -0.73,-5.275 -0.262,-2.059 -0.468,-3.986 -0.617,-5.782 l -7.577,0 c 3.329,31.356 10.963,57.699 22.9,79.027 l 7.296,0" />
          </g>
          <g
             transform="translate(283.18,456.4812)"
             id="g5446">
            <path
               inkscape:connector-curvature="0"
               id="path5448"
               style="fill:#00673a;fill-opacity:1;fill-rule:nonzero;stroke:none"
               d="m 0,0 c 1.593,0 2.875,0.028 3.809,0.084 0.923,0.056 2.148,0.197 3.637,0.42 1.477,0.222 2.873,0.634 4.148,1.225 1.274,0.589 2.482,1.376 3.591,2.338 1.81,1.552 3.272,3.567 4.345,5.99 1.073,2.422 1.617,5.116 1.617,8.003 0,2.886 -0.544,5.579 -1.617,8.003 -1.074,2.424 -2.536,4.439 -4.345,5.99 -1.108,0.96 -2.316,1.747 -3.591,2.339 -1.276,0.591 -2.671,1.003 -4.148,1.225 C 5.962,35.839 4.738,35.98 3.809,36.036 2.883,36.092 1.602,36.12 0,36.12 l -8.238,0 L -8.238,0 0,0 Z m -15.672,-36.171 0,79.276 15.672,0 c 1.825,0 3.348,-0.038 4.526,-0.112 1.178,-0.075 2.787,-0.274 4.783,-0.591 2.004,-0.319 3.942,-0.926 5.759,-1.807 1.816,-0.879 3.534,-2.028 5.108,-3.414 5.577,-4.941 8.406,-11.375 8.406,-19.121 0,-7.746 -2.829,-14.179 -8.406,-19.121 C 18.604,-2.446 16.885,-3.595 15.068,-4.475 13.251,-5.355 11.313,-5.964 9.309,-6.281 7.315,-6.599 5.706,-6.798 4.526,-6.873 3.355,-6.947 1.833,-6.985 0,-6.985 l -8.238,0 0,-29.186 -7.434,0 z" />
          </g>
          <g
             transform="translate(275.0665,492.4765)"
             id="g5450">
            <path
               inkscape:connector-curvature="0"
               id="path5452"
               style="fill:#d1d3d4;fill-opacity:1;fill-rule:nonzero;stroke:none"
               d="m 0,0 8.113,0 c 1.599,0 2.878,-0.028 3.802,-0.084 0.925,-0.055 2.145,-0.196 3.626,-0.418 1.465,-0.22 2.849,-0.629 4.114,-1.215 1.264,-0.587 2.462,-1.367 3.561,-2.319 1.796,-1.54 3.247,-3.54 4.313,-5.946 1.066,-2.409 1.606,-5.085 1.606,-7.953 0,-2.87 -0.54,-5.545 -1.606,-7.953 -1.065,-2.404 -2.516,-4.405 -4.312,-5.945 -1.101,-0.955 -2.299,-1.735 -3.562,-2.321 -1.263,-0.585 -2.647,-0.994 -4.114,-1.214 -1.486,-0.222 -2.706,-0.363 -3.626,-0.419 -0.924,-0.055 -2.203,-0.083 -3.802,-0.083 L 0,-35.87 0,0 Z m 8.113,7.235 -15.547,0 -0.25,0 0,-0.25 0,-79.027 0,-0.25 0.25,0 7.184,0 0.25,0 0,0.25 0,28.937 8.113,0 c 1.835,0 3.361,0.037 4.534,0.112 1.182,0.075 2.795,0.274 4.795,0.592 2.015,0.32 3.964,0.932 5.794,1.818 1.826,0.885 3.554,2.04 5.136,3.434 5.606,4.966 8.448,11.43 8.448,19.214 0,7.784 -2.842,14.248 -8.448,19.214 -1.582,1.394 -3.31,2.549 -5.136,3.434 -1.828,0.885 -3.778,1.497 -5.794,1.818 -2,0.317 -3.613,0.516 -4.795,0.592 -1.181,0.074 -2.706,0.112 -4.534,0.112 m -8.363,-43.355 8.363,0 c 1.609,0 2.881,0.028 3.817,0.084 0.935,0.056 2.151,0.197 3.648,0.421 1.496,0.224 2.891,0.636 4.182,1.235 1.29,0.598 2.497,1.384 3.62,2.357 1.832,1.572 3.292,3.583 4.378,6.034 1.084,2.45 1.627,5.135 1.627,8.054 0,2.919 -0.543,5.603 -1.627,8.054 -1.086,2.45 -2.546,4.463 -4.378,6.034 -1.123,0.972 -2.33,1.758 -3.62,2.357 -1.291,0.598 -2.686,1.011 -4.182,1.235 C 14.081,-0.03 12.865,0.11 11.93,0.166 10.994,0.222 9.722,0.25 8.113,0.25 l -8.363,0 0,-36.37 M 8.113,6.985 c 1.833,0 3.34,-0.037 4.518,-0.112 1.179,-0.075 2.769,-0.271 4.771,-0.589 2.001,-0.319 3.91,-0.917 5.725,-1.796 1.815,-0.88 3.508,-2.012 5.08,-3.396 5.575,-4.939 8.363,-11.281 8.363,-19.027 0,-7.746 -2.788,-14.088 -8.363,-19.027 -1.572,-1.385 -3.265,-2.517 -5.08,-3.396 -1.815,-0.879 -3.724,-1.478 -5.725,-1.796 -2.002,-0.318 -3.592,-0.514 -4.771,-0.589 -1.178,-0.075 -2.685,-0.112 -4.518,-0.112 l -8.363,0 0,-29.187 -7.184,0 0,79.027 15.547,0" />
          </g>
          <g
             transform="translate(360.9705,494.3982)"
             id="g5454">
            <path
               inkscape:connector-curvature="0"
               id="path5456"
               style="fill:#00673a;fill-opacity:1;fill-rule:nonzero;stroke:none"
               d="m 0,0 c -2.917,0 -5.566,-0.749 -7.875,-2.226 -2.312,-1.479 -4.196,-3.392 -5.602,-5.685 -1.037,-1.704 -1.882,-3.593 -2.512,-5.612 -0.631,-2.021 -1.073,-4.335 -1.315,-6.878 -0.24,-2.528 -0.391,-4.65 -0.448,-6.307 -0.056,-1.647 -0.084,-3.949 -0.084,-6.843 0,-2.895 0.028,-5.197 0.084,-6.844 0.057,-1.658 0.208,-3.779 0.448,-6.306 0.242,-2.545 0.684,-4.86 1.315,-6.878 0.63,-2.02 1.475,-3.908 2.512,-5.612 1.406,-2.294 3.29,-4.207 5.602,-5.686 2.307,-1.477 4.956,-2.226 7.875,-2.226 2.919,0 5.568,0.749 7.875,2.226 2.311,1.479 4.195,3.392 5.602,5.686 1.036,1.704 1.881,3.592 2.512,5.612 0.63,2.018 1.072,4.333 1.315,6.878 0.241,2.543 0.391,4.665 0.448,6.306 0.056,1.647 0.084,3.949 0.084,6.844 0,2.894 -0.028,5.196 -0.084,6.843 -0.057,1.641 -0.207,3.763 -0.448,6.307 -0.243,2.543 -0.685,4.857 -1.315,6.878 -0.631,2.019 -1.476,3.908 -2.512,5.613 -1.407,2.292 -3.291,4.205 -5.602,5.684 C 5.566,-0.749 2.917,0 0,0 m 0,-74.088 c -4.346,0 -8.296,1.093 -11.741,3.246 -3.443,2.152 -6.195,4.895 -8.179,8.152 -1.012,1.687 -1.884,3.592 -2.593,5.666 -0.711,2.073 -1.25,3.995 -1.603,5.711 -0.355,1.71 -0.63,3.822 -0.818,6.274 -0.186,2.436 -0.29,4.365 -0.308,5.732 -0.02,1.368 -0.029,3.286 -0.029,5.756 0,2.47 0.009,4.388 0.029,5.755 0.018,1.366 0.122,3.295 0.308,5.733 0.189,2.452 0.463,4.563 0.818,6.273 0.353,1.718 0.893,3.641 1.603,5.712 0.708,2.071 1.58,3.977 2.592,5.665 1.984,3.256 4.736,5.998 8.18,8.152 3.446,2.154 7.396,3.246 11.741,3.246 4.344,0 8.294,-1.092 11.741,-3.246 3.443,-2.153 6.195,-4.895 8.178,-8.152 1.011,-1.683 1.883,-3.589 2.594,-5.665 0.709,-2.071 1.249,-3.993 1.603,-5.712 0.356,-1.718 0.63,-3.829 0.818,-6.273 0.185,-2.438 0.289,-4.367 0.308,-5.733 0.019,-1.367 0.029,-3.285 0.029,-5.755 0,-2.47 -0.01,-4.388 -0.029,-5.756 -0.019,-1.367 -0.123,-3.296 -0.308,-5.732 -0.188,-2.444 -0.462,-4.556 -0.818,-6.274 -0.354,-1.716 -0.893,-3.638 -1.603,-5.711 -0.711,-2.079 -1.584,-3.984 -2.593,-5.665 -1.986,-3.259 -4.737,-6.001 -8.179,-8.153 C 8.295,-72.995 4.345,-74.088 0,-74.088" />
          </g>
          <g
             transform="translate(360.9704,427.4203)"
             id="g5458">
            <path
               inkscape:connector-curvature="0"
               id="path5460"
               style="fill:#d1d3d4;fill-opacity:1;fill-rule:nonzero;stroke:none"
               d="m 0,0 c -2.894,0 -5.521,0.742 -7.807,2.206 -2.297,1.469 -4.168,3.368 -5.562,5.645 -1.033,1.695 -1.874,3.574 -2.501,5.585 -0.628,2.011 -1.068,4.316 -1.308,6.852 -0.242,2.532 -0.392,4.652 -0.449,6.3 -0.055,1.63 -0.083,3.931 -0.083,6.839 0,2.906 0.028,5.207 0.083,6.838 0.057,1.647 0.207,3.766 0.449,6.3 0.24,2.534 0.68,4.84 1.308,6.853 0.627,2.01 1.468,3.889 2.501,5.585 1.394,2.275 3.266,4.175 5.562,5.644 2.287,1.464 4.914,2.206 7.807,2.206 2.893,0 5.52,-0.742 7.808,-2.206 2.294,-1.469 4.166,-3.368 5.562,-5.645 1.031,-1.696 1.872,-3.575 2.5,-5.584 0.627,-2.013 1.067,-4.318 1.309,-6.853 0.241,-2.542 0.392,-4.661 0.448,-6.3 0.056,-1.645 0.084,-3.946 0.084,-6.838 0,-2.894 -0.028,-5.195 -0.084,-6.839 -0.056,-1.64 -0.207,-3.76 -0.448,-6.3 C 16.937,17.752 16.497,15.446 15.87,13.436 15.242,11.425 14.401,9.546 13.369,7.851 11.974,5.574 10.102,3.674 7.808,2.206 5.521,0.742 2.894,0 0,0 m 0,74.088 c -4.368,0 -8.34,-1.099 -11.807,-3.265 -3.461,-2.164 -6.226,-4.92 -8.219,-8.192 -1.017,-1.695 -1.893,-3.609 -2.605,-5.69 -0.711,-2.077 -1.252,-4.004 -1.608,-5.728 -0.356,-1.721 -0.631,-3.837 -0.818,-6.289 -0.187,-2.44 -0.291,-4.371 -0.31,-5.741 -0.019,-1.334 -0.028,-3.217 -0.028,-5.756 0,-2.54 0.009,-4.424 0.028,-5.757 0.019,-1.37 0.123,-3.302 0.31,-5.74 0.187,-2.454 0.462,-4.57 0.818,-6.29 0.355,-1.722 0.896,-3.649 1.608,-5.728 0.713,-2.083 1.589,-3.997 2.604,-5.688 1.995,-3.276 4.761,-6.032 8.22,-8.194 3.466,-2.167 7.438,-3.265 11.807,-3.265 4.368,0 8.341,1.098 11.807,3.265 3.458,2.161 6.223,4.918 8.219,8.192 1.015,1.691 1.891,3.604 2.605,5.69 0.711,2.079 1.252,4.006 1.608,5.728 0.356,1.723 0.631,3.839 0.819,6.29 0.185,2.438 0.29,4.369 0.309,5.74 0.019,1.384 0.029,3.321 0.029,5.757 0,2.435 -0.01,4.371 -0.029,5.756 -0.019,1.37 -0.124,3.301 -0.309,5.741 -0.188,2.45 -0.463,4.566 -0.819,6.289 -0.356,1.724 -0.897,3.651 -1.608,5.728 -0.713,2.084 -1.59,3.998 -2.604,5.688 -1.995,3.275 -4.76,6.031 -8.22,8.194 C 8.34,72.989 4.367,74.088 0,74.088 M 0,-0.25 c 2.955,0 5.604,0.748 7.942,2.245 2.338,1.496 4.218,3.404 5.641,5.726 1.047,1.72 1.889,3.6 2.525,5.64 0.636,2.038 1.076,4.34 1.32,6.904 0.243,2.562 0.392,4.667 0.449,6.314 0.056,1.646 0.084,3.929 0.084,6.848 0,2.918 -0.028,5.2 -0.084,6.847 -0.057,1.646 -0.206,3.751 -0.449,6.314 -0.244,2.563 -0.684,4.864 -1.32,6.904 -0.636,2.039 -1.478,3.919 -2.525,5.641 -1.423,2.32 -3.303,4.228 -5.641,5.725 -2.338,1.496 -4.987,2.245 -7.942,2.245 -2.956,0 -5.604,-0.749 -7.942,-2.245 -2.339,-1.497 -4.219,-3.405 -5.641,-5.725 -1.048,-1.722 -1.89,-3.602 -2.525,-5.641 -0.637,-2.04 -1.077,-4.341 -1.319,-6.904 -0.244,-2.563 -0.393,-4.668 -0.449,-6.314 -0.057,-1.647 -0.084,-3.929 -0.084,-6.847 0,-2.919 0.027,-5.202 0.084,-6.848 0.056,-1.647 0.205,-3.752 0.449,-6.314 0.242,-2.564 0.682,-4.866 1.319,-6.904 0.635,-2.04 1.477,-3.92 2.525,-5.64 1.422,-2.322 3.302,-4.23 5.641,-5.726 C -5.604,0.498 -2.956,-0.25 0,-0.25 m 0,74.088 c 4.34,0 8.231,-1.076 11.675,-3.227 3.442,-2.153 6.154,-4.855 8.137,-8.111 1.011,-1.684 1.872,-3.563 2.583,-5.64 0.71,-2.077 1.244,-3.977 1.599,-5.697 0.356,-1.722 0.627,-3.808 0.815,-6.258 0.186,-2.451 0.289,-4.36 0.308,-5.725 0.019,-1.367 0.029,-3.284 0.029,-5.753 0,-2.47 -0.01,-4.388 -0.029,-5.754 C 25.098,26.307 24.995,24.399 24.809,21.949 24.621,19.498 24.35,17.411 23.994,15.69 23.639,13.969 23.105,12.07 22.395,9.993 21.684,7.917 20.823,6.036 19.812,4.353 17.829,1.098 15.117,-1.606 11.675,-3.758 8.231,-5.91 4.34,-6.985 0,-6.985 c -4.341,0 -8.232,1.075 -11.674,3.227 -3.443,2.152 -6.156,4.856 -8.139,8.111 -1.01,1.683 -1.871,3.564 -2.582,5.64 -0.711,2.077 -1.244,3.976 -1.599,5.697 -0.356,1.721 -0.627,3.808 -0.814,6.259 -0.188,2.45 -0.29,4.358 -0.309,5.724 -0.019,1.366 -0.028,3.284 -0.028,5.754 0,2.469 0.009,4.386 0.028,5.753 0.019,1.365 0.121,3.274 0.309,5.725 0.187,2.45 0.458,4.536 0.814,6.258 0.355,1.72 0.888,3.62 1.599,5.697 0.711,2.077 1.572,3.956 2.582,5.64 1.983,3.256 4.696,5.958 8.139,8.111 3.442,2.151 7.333,3.227 11.674,3.227" />
          </g>
        </g>
      </g>
    </g>
    <rect
       style="opacity:1;fill:none;fill-opacity:1;stroke:#ffffff;stroke-width:2.54486918;stroke-linecap:butt;stroke-linejoin:miter;stroke-miterlimit:4;stroke-dasharray:none;stroke-dashoffset:0;stroke-opacity:1"
       id="rect5778"
       width="597.45514"
       height="507.45514"
       x="-2837.2827"
       y="-816.05713" />
  </g>
</svg>
