<?xml version="1.0" encoding="UTF-8" standalone="no"?>
<!DOCTYPE svg PUBLIC "-//W3C//DTD SVG 1.1//EN"
 "http://www.w3.org/Graphics/SVG/1.1/DTD/svg11.dtd">
<!-- Generated by graphviz version 2.43.20190912.0211 (20190912.0211)
 -->
<!-- Title: leds Pages: 1 -->
<svg width="308pt" height="445pt"
 viewBox="0.00 0.00 308.24 445.00" xmlns="http://www.w3.org/2000/svg" xmlns:xlink="http://www.w3.org/1999/xlink">
<g id="graph0" class="graph" transform="scale(1 1) rotate(0) translate(4 441)">
<title>leds</title>
<polygon fill="white" stroke="transparent" points="-4,4 -4,-441 304.24,-441 304.24,4 -4,4"/>
<text text-anchor="middle" x="150.12" y="-7.8" font-family="Times,serif" font-size="14.00">leds</text>
<!-- n1 -->
<g id="node1" class="node">
<title>n1</title>
<polygon fill="none" stroke="black" points="300.42,-33.54 300.42,-48.46 279.71,-59 250.42,-59 229.72,-48.46 229.72,-33.54 250.42,-23 279.71,-23 300.42,-33.54"/>
<text text-anchor="middle" x="265.07" y="-37.3" font-family="Times,serif" font-size="14.00">LED7</text>
</g>
<!-- n2 -->
<g id="node2" class="node">
<title>n2</title>
<polygon fill="none" stroke="black" points="300.42,-87.54 300.42,-102.46 279.71,-113 250.42,-113 229.72,-102.46 229.72,-87.54 250.42,-77 279.71,-77 300.42,-87.54"/>
<text text-anchor="middle" x="265.07" y="-91.3" font-family="Times,serif" font-size="14.00">LED6</text>
</g>
<!-- n3 -->
<g id="node3" class="node">
<title>n3</title>
<polygon fill="none" stroke="black" points="300.42,-141.54 300.42,-156.46 279.71,-167 250.42,-167 229.72,-156.46 229.72,-141.54 250.42,-131 279.71,-131 300.42,-141.54"/>
<text text-anchor="middle" x="265.07" y="-145.3" font-family="Times,serif" font-size="14.00">LED5</text>
</g>
<!-- n4 -->
<g id="node4" class="node">
<title>n4</title>
<polygon fill="none" stroke="black" points="300.42,-195.54 300.42,-210.46 279.71,-221 250.42,-221 229.72,-210.46 229.72,-195.54 250.42,-185 279.71,-185 300.42,-195.54"/>
<text text-anchor="middle" x="265.07" y="-199.3" font-family="Times,serif" font-size="14.00">LED4</text>
</g>
<!-- n5 -->
<g id="node5" class="node">
<title>n5</title>
<polygon fill="none" stroke="black" points="300.42,-249.54 300.42,-264.46 279.71,-275 250.42,-275 229.72,-264.46 229.72,-249.54 250.42,-239 279.71,-239 300.42,-249.54"/>
<text text-anchor="middle" x="265.07" y="-253.3" font-family="Times,serif" font-size="14.00">LED3</text>
</g>
<!-- n6 -->
<g id="node6" class="node">
<title>n6</title>
<polygon fill="none" stroke="black" points="300.42,-303.54 300.42,-318.46 279.71,-329 250.42,-329 229.72,-318.46 229.72,-303.54 250.42,-293 279.71,-293 300.42,-303.54"/>
<text text-anchor="middle" x="265.07" y="-307.3" font-family="Times,serif" font-size="14.00">LED2</text>
</g>
<!-- n7 -->
<g id="node7" class="node">
<title>n7</title>
<polygon fill="none" stroke="black" points="300.42,-357.54 300.42,-372.46 279.71,-383 250.42,-383 229.72,-372.46 229.72,-357.54 250.42,-347 279.71,-347 300.42,-357.54"/>
<text text-anchor="middle" x="265.07" y="-361.3" font-family="Times,serif" font-size="14.00">LED1</text>
</g>
<!-- n8 -->
<g id="node8" class="node">
<title>n8</title>
<polygon fill="none" stroke="black" points="300.42,-411.54 300.42,-426.46 279.71,-437 250.42,-437 229.72,-426.46 229.72,-411.54 250.42,-401 279.71,-401 300.42,-411.54"/>
<text text-anchor="middle" x="265.07" y="-415.3" font-family="Times,serif" font-size="14.00">LED0</text>
</g>
<!-- v0 -->
<g id="node9" class="node">
<title>v0</title>
<ellipse fill="none" stroke="black" cx="47.45" cy="-419" rx="27" ry="18"/>
<text text-anchor="middle" x="47.45" y="-415.3" font-family="Times,serif" font-size="14.00">1&#39;1</text>
</g>
<!-- x1 -->
<g id="node10" class="node">
<title>x1</title>
<ellipse fill="black" stroke="black" cx="162.39" cy="-419" rx="1.8" ry="1.8"/>
</g>
<!-- v0&#45;&gt;x1 -->
<g id="edge9" class="edge">
<title>v0:e&#45;&gt;x1:w</title>
<path fill="none" stroke="#1b9e77" d="M75.45,-419C109.11,-419 119.99,-419 149.21,-419"/>
<polygon fill="#1b9e77" stroke="#1b9e77" points="149.39,-422.5 159.39,-419 149.39,-415.5 149.39,-422.5"/>
</g>
<!-- x1&#45;&gt;n8 -->
<g id="edge8" class="edge">
<title>x1:e&#45;&gt;n8:w</title>
<path fill="none" stroke="#d95f02" d="M165.39,-419C190.36,-419 199.02,-419 219.79,-419"/>
<polygon fill="#d95f02" stroke="#d95f02" points="219.89,-422.5 229.89,-419 219.89,-415.5 219.89,-422.5"/>
</g>
<!-- v2 -->
<g id="node11" class="node">
<title>v2</title>
<ellipse fill="none" stroke="black" cx="47.45" cy="-203" rx="47.39" ry="18"/>
<text text-anchor="middle" x="47.45" y="-199.3" font-family="Times,serif" font-size="14.00">7&#39;0000000</text>
</g>
<!-- x3 -->
<g id="node12" class="node">
<title>x3</title>
<path fill="none" stroke="#666666" d="M142.89,-122.5C142.89,-122.5 181.89,-122.5 181.89,-122.5 187.89,-122.5 193.89,-128.5 193.89,-134.5 193.89,-134.5 193.89,-271.5 193.89,-271.5 193.89,-277.5 187.89,-283.5 181.89,-283.5 181.89,-283.5 142.89,-283.5 142.89,-283.5 136.89,-283.5 130.89,-277.5 130.89,-271.5 130.89,-271.5 130.89,-134.5 130.89,-134.5 130.89,-128.5 136.89,-122.5 142.89,-122.5"/>
<text text-anchor="middle" x="162.39" y="-268.3" font-family="Times,serif" font-size="14.00" fill="#666666">6:6 &#45; 0:0</text>
<polyline fill="none" stroke="#666666" points="130.89,-260.5 193.89,-260.5 "/>
<text text-anchor="middle" x="162.39" y="-245.3" font-family="Times,serif" font-size="14.00" fill="#666666">5:5 &#45; 0:0</text>
<polyline fill="none" stroke="#666666" points="130.89,-237.5 193.89,-237.5 "/>
<text text-anchor="middle" x="162.39" y="-222.3" font-family="Times,serif" font-size="14.00" fill="#666666">4:4 &#45; 0:0</text>
<polyline fill="none" stroke="#666666" points="130.89,-214.5 193.89,-214.5 "/>
<text text-anchor="middle" x="162.39" y="-199.3" font-family="Times,serif" font-size="14.00" fill="#666666">3:3 &#45; 0:0</text>
<polyline fill="none" stroke="#666666" points="130.89,-191.5 193.89,-191.5 "/>
<text text-anchor="middle" x="162.39" y="-176.3" font-family="Times,serif" font-size="14.00" fill="#666666">2:2 &#45; 0:0</text>
<polyline fill="none" stroke="#666666" points="130.89,-168.5 193.89,-168.5 "/>
<text text-anchor="middle" x="162.39" y="-153.3" font-family="Times,serif" font-size="14.00" fill="#666666">1:1 &#45; 0:0</text>
<polyline fill="none" stroke="#666666" points="130.89,-145.5 193.89,-145.5 "/>
<text text-anchor="middle" x="162.39" y="-130.3" font-family="Times,serif" font-size="14.00" fill="#666666">0:0 &#45; 0:0</text>
</g>
<!-- v2&#45;&gt;x3 -->
<g id="edge10" class="edge">
<title>v2:e&#45;&gt;x3:w</title>
<path fill="none" stroke="#1b9e77" stroke-width="3" d="M94.89,-203C106.89,-203 112.14,-203 120.77,-203"/>
<polygon fill="#1b9e77" stroke="#1b9e77" stroke-width="3" points="120.89,-206.5 130.89,-203 120.89,-199.5 120.89,-206.5"/>
</g>
<!-- x3&#45;&gt;n1 -->
<g id="edge1" class="edge">
<title>x3:e&#45;&gt;n1:w</title>
<path fill="none" stroke="#66a61e" d="M193.89,-134C234.06,-134 194.59,-57.62 219.82,-43.3"/>
<polygon fill="#66a61e" stroke="#66a61e" points="220.92,-46.64 229.89,-41 219.36,-39.81 220.92,-46.64"/>
</g>
<!-- x3&#45;&gt;n2 -->
<g id="edge2" class="edge">
<title>x3:e&#45;&gt;n2:w</title>
<path fill="none" stroke="#1b9e77" d="M193.89,-157C221.52,-157 204.34,-110.38 220.07,-97.99"/>
<polygon fill="#1b9e77" stroke="#1b9e77" points="221.34,-101.26 229.89,-95 219.31,-94.56 221.34,-101.26"/>
</g>
<!-- x3&#45;&gt;n3 -->
<g id="edge3" class="edge">
<title>x3:e&#45;&gt;n3:w</title>
<path fill="none" stroke="#1b9e77" d="M193.89,-180C210.88,-180 210.17,-159.93 220.24,-152.09"/>
<polygon fill="#1b9e77" stroke="#1b9e77" points="221.43,-155.38 229.89,-149 219.3,-148.71 221.43,-155.38"/>
</g>
<!-- x3&#45;&gt;n4 -->
<g id="edge4" class="edge">
<title>x3:e&#45;&gt;n4:w</title>
<path fill="none" stroke="#7570b3" d="M193.89,-203C205.89,-203 211.14,-203 219.77,-203"/>
<polygon fill="#7570b3" stroke="#7570b3" points="219.89,-206.5 229.89,-203 219.89,-199.5 219.89,-206.5"/>
</g>
<!-- x3&#45;&gt;n5 -->
<g id="edge5" class="edge">
<title>x3:e&#45;&gt;n5:w</title>
<path fill="none" stroke="#e7298a" d="M193.89,-226C210.88,-226 210.17,-246.07 220.24,-253.91"/>
<polygon fill="#e7298a" stroke="#e7298a" points="219.3,-257.29 229.89,-257 221.43,-250.62 219.3,-257.29"/>
</g>
<!-- x3&#45;&gt;n6 -->
<g id="edge6" class="edge">
<title>x3:e&#45;&gt;n6:w</title>
<path fill="none" stroke="#e7298a" d="M193.89,-249C221.52,-249 204.34,-295.62 220.07,-308.01"/>
<polygon fill="#e7298a" stroke="#e7298a" points="219.31,-311.44 229.89,-311 221.34,-304.74 219.31,-311.44"/>
</g>
<!-- x3&#45;&gt;n7 -->
<g id="edge7" class="edge">
<title>x3:e&#45;&gt;n7:w</title>
<path fill="none" stroke="#7570b3" d="M193.89,-272C234.06,-272 194.59,-348.38 219.82,-362.7"/>
<polygon fill="#7570b3" stroke="#7570b3" points="219.36,-366.19 229.89,-365 220.92,-359.36 219.36,-366.19"/>
</g>
</g>
</svg>
