<?xml version="1.0" encoding="UTF-8" standalone="no"?>
<!DOCTYPE svg PUBLIC "-//W3C//DTD SVG 1.1//EN"
 "http://www.w3.org/Graphics/SVG/1.1/DTD/svg11.dtd">
<!-- Generated by graphviz version 2.43.20190912.0211 (20190912.0211)
 -->
<!-- Title: main Pages: 1 -->
<svg width="1752pt" height="1131pt"
 viewBox="0.00 0.00 1752.49 1131.00" xmlns="http://www.w3.org/2000/svg" xmlns:xlink="http://www.w3.org/1999/xlink">
<g id="graph0" class="graph" transform="scale(1 1) rotate(0) translate(4 1127)">
<title>main</title>
<polygon fill="white" stroke="transparent" points="-4,4 -4,-1127 1748.49,-1127 1748.49,4 -4,4"/>
<text text-anchor="middle" x="872.24" y="-7.8" font-family="Times,serif" font-size="14.00">main</text>
<!-- n12 -->
<g id="node1" class="node">
<title>n12</title>
<text text-anchor="middle" x="59" y="-426.3" font-family="Times,serif" font-size="14.00">green_led</text>
</g>
<!-- n13 -->
<g id="node2" class="node">
<title>n13</title>
<text text-anchor="middle" x="59" y="-480.3" font-family="Times,serif" font-size="14.00">red_led</text>
</g>
<!-- n14 -->
<g id="node3" class="node">
<title>n14</title>
<text text-anchor="middle" x="217" y="-535.3" font-family="Times,serif" font-size="14.00">wr_en</text>
</g>
<!-- c43 -->
<g id="node25" class="node">
<title>c43</title>
<polygon fill="none" stroke="black" points="731,-698 731,-836 956,-836 956,-698 731,-698"/>
<text text-anchor="middle" x="769" y="-820.8" font-family="Times,serif" font-size="14.00">ftdi_clkout</text>
<polyline fill="none" stroke="black" points="731,-813 807,-813 "/>
<text text-anchor="middle" x="769" y="-797.8" font-family="Times,serif" font-size="14.00">ftdi_txe_n</text>
<polyline fill="none" stroke="black" points="731,-790 807,-790 "/>
<text text-anchor="middle" x="769" y="-774.8" font-family="Times,serif" font-size="14.00">sys_clk</text>
<polyline fill="none" stroke="black" points="731,-767 807,-767 "/>
<text text-anchor="middle" x="769" y="-751.8" font-family="Times,serif" font-size="14.00">sys_reset</text>
<polyline fill="none" stroke="black" points="731,-744 807,-744 "/>
<text text-anchor="middle" x="769" y="-728.8" font-family="Times,serif" font-size="14.00">wr_data</text>
<polyline fill="none" stroke="black" points="731,-721 807,-721 "/>
<text text-anchor="middle" x="769" y="-705.8" font-family="Times,serif" font-size="14.00">wr_en</text>
<polyline fill="none" stroke="black" points="807,-698 807,-836 "/>
<text text-anchor="middle" x="846.5" y="-770.8" font-family="Times,serif" font-size="14.00">ftdi_tx_fifo</text>
<text text-anchor="middle" x="846.5" y="-755.8" font-family="Times,serif" font-size="14.00">ftdi_tx_fifo</text>
<polyline fill="none" stroke="black" points="886,-698 886,-836 "/>
<text text-anchor="middle" x="921" y="-815.3" font-family="Times,serif" font-size="14.00">ftdi_data</text>
<polyline fill="none" stroke="black" points="886,-802 956,-802 "/>
<text text-anchor="middle" x="921" y="-780.8" font-family="Times,serif" font-size="14.00">ftdi_wr_n</text>
<polyline fill="none" stroke="black" points="886,-767 956,-767 "/>
<text text-anchor="middle" x="921" y="-746.3" font-family="Times,serif" font-size="14.00">wr_err</text>
<polyline fill="none" stroke="black" points="886,-733 956,-733 "/>
<text text-anchor="middle" x="921" y="-711.8" font-family="Times,serif" font-size="14.00">wr_ok</text>
</g>
<!-- n14&#45;&gt;c43 -->
<g id="edge3" class="edge">
<title>n14:e&#45;&gt;c43:w</title>
<path fill="none" stroke="#e7298a" d="M235,-539C279.54,-539 276.74,-576.97 316,-598 384.92,-634.92 405.77,-637.71 481,-659 482.5,-659.43 674.81,-698.07 721.08,-707.12"/>
<polygon fill="#e7298a" stroke="#e7298a" points="720.52,-710.57 731,-709 721.83,-703.7 720.52,-710.57"/>
</g>
<!-- p6 -->
<g id="node40" class="node">
<title>p6</title>
<path fill="none" stroke="black" d="M424,-444C424,-444 337,-444 337,-444 331,-444 325,-438 325,-432 325,-432 325,-418 325,-418 325,-412 331,-406 337,-406 337,-406 424,-406 424,-406 430,-406 436,-412 436,-418 436,-418 436,-432 436,-432 436,-438 430,-444 424,-444"/>
<text text-anchor="middle" x="380.5" y="-428.8" font-family="Times,serif" font-size="14.00">PROC $1</text>
<text text-anchor="middle" x="380.5" y="-413.8" font-family="Times,serif" font-size="14.00">main.v:47.3&#45;65.6</text>
</g>
<!-- n14&#45;&gt;p6 -->
<g id="edge4" class="edge">
<title>n14:e&#45;&gt;p6:w</title>
<path fill="none" stroke="#e7298a" d="M235,-539C263.81,-539 286.4,-446.98 313.95,-428.29"/>
<polygon fill="#e7298a" stroke="#e7298a" points="315.18,-431.57 323.5,-425 312.91,-424.95 315.18,-431.57"/>
</g>
<!-- x12 -->
<g id="node43" class="node">
<title>x12</title>
<path fill="none" stroke="#666666" d="M361,-553C361,-553 400,-553 400,-553 406,-553 412,-559 412,-565 412,-565 412,-577 412,-577 412,-583 406,-589 400,-589 400,-589 361,-589 361,-589 355,-589 349,-583 349,-577 349,-577 349,-565 349,-565 349,-559 355,-553 361,-553"/>
<text text-anchor="middle" x="380.5" y="-567.3" font-family="Times,serif" font-size="14.00" fill="#666666">0:0 &#45; 2:2</text>
</g>
<!-- n14&#45;&gt;x12 -->
<g id="edge5" class="edge">
<title>n14:e&#45;&gt;x12:w</title>
<path fill="none" stroke="#e7298a" d="M235,-539C283.43,-539 294.15,-566.77 337.42,-570.57"/>
<polygon fill="#e7298a" stroke="#e7298a" points="337.36,-574.07 347.5,-571 337.66,-567.08 337.36,-574.07"/>
</g>
<!-- n15 -->
<g id="node4" class="node">
<title>n15</title>
<text text-anchor="middle" x="588" y="-513.3" font-family="Times,serif" font-size="14.00">wr_data</text>
</g>
<!-- n15&#45;&gt;c43 -->
<g id="edge7" class="edge">
<title>n15:e&#45;&gt;c43:w</title>
<path fill="none" stroke="#7570b3" stroke-width="3" d="M611,-517C614.01,-517 702.17,-683.82 725.48,-723.57"/>
<polygon fill="#7570b3" stroke="#7570b3" stroke-width="3" points="722.59,-725.56 731,-732 728.45,-721.72 722.59,-725.56"/>
</g>
<!-- n15&#45;&gt;p6 -->
<g id="edge8" class="edge">
<title>n15:e&#45;&gt;p6:w</title>
<path fill="none" stroke="#7570b3" stroke-width="3" d="M611,-517C637.76,-517 638.9,-548.28 566,-535 453.16,-514.45 392.22,-536.58 324.5,-444 322.47,-441.23 320.53,-437.57 319.51,-434.21"/>
<polygon fill="#7570b3" stroke="#7570b3" stroke-width="3" points="322.73,-435.57 323.5,-425 316.31,-432.78 322.73,-435.57"/>
</g>
<!-- n16 -->
<g id="node5" class="node">
<title>n16</title>
<text text-anchor="middle" x="588" y="-183.3" font-family="Times,serif" font-size="14.00">data_counter</text>
</g>
<!-- c44 -->
<g id="node27" class="node">
<title>c44</title>
<polygon fill="none" stroke="black" points="796,-67 796,-113 891,-113 891,-67 796,-67"/>
<text text-anchor="middle" x="809" y="-97.8" font-family="Times,serif" font-size="14.00">A</text>
<polyline fill="none" stroke="black" points="796,-90 822,-90 "/>
<text text-anchor="middle" x="809" y="-74.8" font-family="Times,serif" font-size="14.00">B</text>
<polyline fill="none" stroke="black" points="822,-67 822,-113 "/>
<text text-anchor="middle" x="843.5" y="-93.8" font-family="Times,serif" font-size="14.00">$5</text>
<text text-anchor="middle" x="843.5" y="-78.8" font-family="Times,serif" font-size="14.00">$add</text>
<polyline fill="none" stroke="black" points="865,-67 865,-113 "/>
<text text-anchor="middle" x="878" y="-86.3" font-family="Times,serif" font-size="14.00">Y</text>
</g>
<!-- n16&#45;&gt;c44 -->
<g id="edge10" class="edge">
<title>n16:e&#45;&gt;c44:w</title>
<path fill="none" stroke="#d95f02" d="M624,-187C679.64,-187 680.32,-144.97 731,-122 754.58,-111.31 762.86,-104.02 784.38,-102.36"/>
<polygon fill="#d95f02" stroke="#d95f02" points="784.63,-105.85 794.5,-102 784.38,-98.86 784.63,-105.85"/>
</g>
<!-- c45 -->
<g id="node29" class="node">
<title>c45</title>
<polygon fill="none" stroke="black" points="796,-250 796,-296 891,-296 891,-250 796,-250"/>
<text text-anchor="middle" x="809" y="-280.8" font-family="Times,serif" font-size="14.00">A</text>
<polyline fill="none" stroke="black" points="796,-273 822,-273 "/>
<text text-anchor="middle" x="809" y="-257.8" font-family="Times,serif" font-size="14.00">B</text>
<polyline fill="none" stroke="black" points="822,-250 822,-296 "/>
<text text-anchor="middle" x="843.5" y="-276.8" font-family="Times,serif" font-size="14.00">$4</text>
<text text-anchor="middle" x="843.5" y="-261.8" font-family="Times,serif" font-size="14.00">$add</text>
<polyline fill="none" stroke="black" points="865,-250 865,-296 "/>
<text text-anchor="middle" x="878" y="-269.3" font-family="Times,serif" font-size="14.00">Y</text>
</g>
<!-- n16&#45;&gt;c45 -->
<g id="edge11" class="edge">
<title>n16:e&#45;&gt;c45:w</title>
<path fill="none" stroke="#d95f02" d="M624,-187C707.82,-187 707.3,-277.13 784.2,-284.52"/>
<polygon fill="#d95f02" stroke="#d95f02" points="784.35,-288.03 794.5,-285 784.67,-281.04 784.35,-288.03"/>
</g>
<!-- c47 -->
<g id="node33" class="node">
<title>c47</title>
<polygon fill="none" stroke="black" points="799.5,-132 799.5,-178 887.5,-178 887.5,-132 799.5,-132"/>
<text text-anchor="middle" x="812.5" y="-162.8" font-family="Times,serif" font-size="14.00">A</text>
<polyline fill="none" stroke="black" points="799.5,-155 825.5,-155 "/>
<text text-anchor="middle" x="812.5" y="-139.8" font-family="Times,serif" font-size="14.00">B</text>
<polyline fill="none" stroke="black" points="825.5,-132 825.5,-178 "/>
<text text-anchor="middle" x="843.5" y="-158.8" font-family="Times,serif" font-size="14.00">$2</text>
<text text-anchor="middle" x="843.5" y="-143.8" font-family="Times,serif" font-size="14.00">$eq</text>
<polyline fill="none" stroke="black" points="861.5,-132 861.5,-178 "/>
<text text-anchor="middle" x="874.5" y="-151.3" font-family="Times,serif" font-size="14.00">Y</text>
</g>
<!-- n16&#45;&gt;c47 -->
<g id="edge12" class="edge">
<title>n16:e&#45;&gt;c47:w</title>
<path fill="none" stroke="#d95f02" d="M624,-187C698.56,-187 718.67,-168.76 788.33,-167.12"/>
<polygon fill="#d95f02" stroke="#d95f02" points="788.54,-170.62 798.5,-167 788.46,-163.62 788.54,-170.62"/>
</g>
<!-- n16&#45;&gt;p6 -->
<g id="edge13" class="edge">
<title>n16:e&#45;&gt;p6:w</title>
<path fill="none" stroke="#d95f02" d="M624,-187C632.01,-187 628.54,-199.21 623,-205 601.06,-227.9 504.5,-197.72 481,-219 405.41,-287.45 514.87,-379.35 436,-444 397.68,-475.42 360.45,-478.11 324.5,-444 321.82,-441.45 319.67,-437.5 318.81,-433.85"/>
<polygon fill="#d95f02" stroke="#d95f02" points="321.92,-435.48 323.5,-425 315.73,-432.2 321.92,-435.48"/>
</g>
<!-- n17 -->
<g id="node6" class="node">
<title>n17</title>
<text text-anchor="middle" x="588" y="-421.3" font-family="Times,serif" font-size="14.00">data_pattern</text>
</g>
<!-- c46 -->
<g id="node31" class="node">
<title>c46</title>
<polygon fill="none" stroke="black" points="796,-360 796,-406 891,-406 891,-360 796,-360"/>
<text text-anchor="middle" x="809" y="-390.8" font-family="Times,serif" font-size="14.00">A</text>
<polyline fill="none" stroke="black" points="796,-383 822,-383 "/>
<text text-anchor="middle" x="809" y="-367.8" font-family="Times,serif" font-size="14.00">B</text>
<polyline fill="none" stroke="black" points="822,-360 822,-406 "/>
<text text-anchor="middle" x="843.5" y="-386.8" font-family="Times,serif" font-size="14.00">$3</text>
<text text-anchor="middle" x="843.5" y="-371.8" font-family="Times,serif" font-size="14.00">$add</text>
<polyline fill="none" stroke="black" points="865,-360 865,-406 "/>
<text text-anchor="middle" x="878" y="-379.3" font-family="Times,serif" font-size="14.00">Y</text>
</g>
<!-- n17&#45;&gt;c46 -->
<g id="edge15" class="edge">
<title>n17:e&#45;&gt;c46:w</title>
<path fill="none" stroke="#1b9e77" stroke-width="3" d="M623,-425C696.9,-425 715.49,-397.63 784.43,-395.18"/>
<polygon fill="#1b9e77" stroke="#1b9e77" stroke-width="3" points="784.56,-398.67 794.5,-395 784.44,-391.68 784.56,-398.67"/>
</g>
<!-- n17&#45;&gt;p6 -->
<g id="edge16" class="edge">
<title>n17:e&#45;&gt;p6:w</title>
<path fill="none" stroke="#1b9e77" stroke-width="3" d="M623,-425C631.01,-425 627.81,-437.48 622,-443 592.05,-471.49 477.33,-443.89 436,-444 386.44,-444.13 360.45,-478.11 324.5,-444 321.82,-441.45 319.67,-437.5 318.81,-433.85"/>
<polygon fill="#1b9e77" stroke="#1b9e77" stroke-width="3" points="321.92,-435.48 323.5,-425 315.73,-432.2 321.92,-435.48"/>
</g>
<!-- n18 -->
<g id="node7" class="node">
<title>n18</title>
<text text-anchor="middle" x="1041.24" y="-742.3" font-family="Times,serif" font-size="14.00">wr_err</text>
</g>
<!-- c41 -->
<g id="node23" class="node">
<title>c41</title>
<polygon fill="none" stroke="black" points="1126.49,-858 1126.49,-950 1320.49,-950 1320.49,-858 1126.49,-858"/>
<text text-anchor="middle" x="1159.49" y="-934.8" font-family="Times,serif" font-size="14.00">in</text>
<polyline fill="none" stroke="black" points="1126.49,-927 1192.49,-927 "/>
<text text-anchor="middle" x="1159.49" y="-911.8" font-family="Times,serif" font-size="14.00">out</text>
<polyline fill="none" stroke="black" points="1126.49,-904 1192.49,-904 "/>
<text text-anchor="middle" x="1159.49" y="-888.8" font-family="Times,serif" font-size="14.00">sys_clk</text>
<polyline fill="none" stroke="black" points="1126.49,-881 1192.49,-881 "/>
<text text-anchor="middle" x="1159.49" y="-865.8" font-family="Times,serif" font-size="14.00">sys_reset</text>
<polyline fill="none" stroke="black" points="1192.49,-858 1192.49,-950 "/>
<text text-anchor="middle" x="1246.49" y="-907.8" font-family="Times,serif" font-size="14.00">err_led_stretcher</text>
<text text-anchor="middle" x="1246.49" y="-892.8" font-family="Times,serif" font-size="14.00">pulse_stretcher</text>
<polyline fill="none" stroke="black" points="1300.49,-858 1300.49,-950 "/>
<text text-anchor="middle" x="1310.49" y="-900.3" font-family="Times,serif" font-size="14.00"> </text>
</g>
<!-- n18&#45;&gt;c41 -->
<g id="edge18" class="edge">
<title>n18:e&#45;&gt;c41:w</title>
<path fill="none" stroke="#1b9e77" d="M1061.24,-746C1078.93,-746 1081.71,-757.64 1090.49,-773 1126.13,-835.34 1058.24,-929.27 1116.49,-938.3"/>
<polygon fill="#1b9e77" stroke="#1b9e77" points="1116.27,-941.79 1126.49,-939 1116.76,-934.81 1116.27,-941.79"/>
</g>
<!-- x13 -->
<g id="node44" class="node">
<title>x13</title>
<path fill="none" stroke="#666666" d="M1203.99,-729C1203.99,-729 1242.99,-729 1242.99,-729 1248.99,-729 1254.99,-735 1254.99,-741 1254.99,-741 1254.99,-753 1254.99,-753 1254.99,-759 1248.99,-765 1242.99,-765 1242.99,-765 1203.99,-765 1203.99,-765 1197.99,-765 1191.99,-759 1191.99,-753 1191.99,-753 1191.99,-741 1191.99,-741 1191.99,-735 1197.99,-729 1203.99,-729"/>
<text text-anchor="middle" x="1223.49" y="-743.3" font-family="Times,serif" font-size="14.00" fill="#666666">0:0 &#45; 3:3</text>
</g>
<!-- n18&#45;&gt;x13 -->
<g id="edge19" class="edge">
<title>n18:e&#45;&gt;x13:w</title>
<path fill="none" stroke="#1b9e77" d="M1061.24,-746C1115.1,-746 1131.08,-746.88 1180.2,-746.99"/>
<polygon fill="#1b9e77" stroke="#1b9e77" points="1180.49,-750.49 1190.49,-747 1180.49,-743.49 1180.49,-750.49"/>
</g>
<!-- n19 -->
<g id="node8" class="node">
<title>n19</title>
<text text-anchor="middle" x="1041.24" y="-541.3" font-family="Times,serif" font-size="14.00">wr_ok</text>
</g>
<!-- c42 -->
<g id="node24" class="node">
<title>c42</title>
<polygon fill="none" stroke="black" points="1126.99,-403 1126.99,-495 1319.99,-495 1319.99,-403 1126.99,-403"/>
<text text-anchor="middle" x="1159.99" y="-479.8" font-family="Times,serif" font-size="14.00">in</text>
<polyline fill="none" stroke="black" points="1126.99,-472 1192.99,-472 "/>
<text text-anchor="middle" x="1159.99" y="-456.8" font-family="Times,serif" font-size="14.00">out</text>
<polyline fill="none" stroke="black" points="1126.99,-449 1192.99,-449 "/>
<text text-anchor="middle" x="1159.99" y="-433.8" font-family="Times,serif" font-size="14.00">sys_clk</text>
<polyline fill="none" stroke="black" points="1126.99,-426 1192.99,-426 "/>
<text text-anchor="middle" x="1159.99" y="-410.8" font-family="Times,serif" font-size="14.00">sys_reset</text>
<polyline fill="none" stroke="black" points="1192.99,-403 1192.99,-495 "/>
<text text-anchor="middle" x="1246.49" y="-452.8" font-family="Times,serif" font-size="14.00">ok_led_stretcher</text>
<text text-anchor="middle" x="1246.49" y="-437.8" font-family="Times,serif" font-size="14.00">pulse_stretcher</text>
<polyline fill="none" stroke="black" points="1299.99,-403 1299.99,-495 "/>
<text text-anchor="middle" x="1309.99" y="-445.3" font-family="Times,serif" font-size="14.00"> </text>
</g>
<!-- n19&#45;&gt;c42 -->
<g id="edge21" class="edge">
<title>n19:e&#45;&gt;c42:w</title>
<path fill="none" stroke="#e6ab02" d="M1060.24,-545C1096.52,-545 1088.58,-494.9 1116.56,-485.51"/>
<polygon fill="#e6ab02" stroke="#e6ab02" points="1117.13,-488.96 1126.49,-484 1116.08,-482.04 1117.13,-488.96"/>
</g>
<!-- n20 -->
<g id="node9" class="node">
<title>n20</title>
<text text-anchor="middle" x="1385.49" y="-507.3" font-family="Times,serif" font-size="14.00">pll_locked</text>
</g>
<!-- c48 -->
<g id="node34" class="node">
<title>c48</title>
<polygon fill="none" stroke="black" points="1450.49,-461 1450.49,-507 1658.49,-507 1658.49,-461 1450.49,-461"/>
<text text-anchor="middle" x="1487.49" y="-491.8" font-family="Times,serif" font-size="14.00">pll_locked</text>
<polyline fill="none" stroke="black" points="1450.49,-484 1524.49,-484 "/>
<text text-anchor="middle" x="1487.49" y="-468.8" font-family="Times,serif" font-size="14.00">sys_clk</text>
<polyline fill="none" stroke="black" points="1524.49,-461 1524.49,-507 "/>
<text text-anchor="middle" x="1558.49" y="-487.8" font-family="Times,serif" font-size="14.00">reset_gen</text>
<text text-anchor="middle" x="1558.49" y="-472.8" font-family="Times,serif" font-size="14.00">reset_gen</text>
<polyline fill="none" stroke="black" points="1592.49,-461 1592.49,-507 "/>
<text text-anchor="middle" x="1625.49" y="-480.3" font-family="Times,serif" font-size="14.00">sys_reset</text>
</g>
<!-- n20&#45;&gt;c48 -->
<g id="edge24" class="edge">
<title>n20:e&#45;&gt;c48:w</title>
<path fill="none" stroke="#d95f02" d="M1414.49,-511C1427.76,-511 1431.65,-502.21 1440.53,-498.09"/>
<polygon fill="#d95f02" stroke="#d95f02" points="1441.42,-501.47 1450.49,-496 1439.98,-494.62 1441.42,-501.47"/>
</g>
<!-- n21 -->
<g id="node10" class="node">
<title>n21</title>
<text text-anchor="middle" x="1719.49" y="-480.3" font-family="Times,serif" font-size="14.00">sys_reset</text>
</g>
<!-- n22 -->
<g id="node11" class="node">
<title>n22</title>
<text text-anchor="middle" x="1385.49" y="-561.3" font-family="Times,serif" font-size="14.00">sys_clk</text>
</g>
<!-- n23 -->
<g id="node12" class="node">
<title>n23</title>
<polygon fill="none" stroke="black" points="1087.2,-1008.54 1087.2,-1023.46 1060.28,-1034 1022.21,-1034 995.29,-1023.46 995.29,-1008.54 1022.21,-998 1060.28,-998 1087.2,-1008.54"/>
<text text-anchor="middle" x="1041.24" y="-1012.3" font-family="Times,serif" font-size="14.00">ftdi_data</text>
</g>
<!-- n24 -->
<g id="node13" class="node">
<title>n24</title>
<polygon fill="none" stroke="black" points="1090.73,-792.54 1090.73,-807.46 1061.74,-818 1020.74,-818 991.75,-807.46 991.75,-792.54 1020.74,-782 1061.74,-782 1090.73,-792.54"/>
<text text-anchor="middle" x="1041.24" y="-796.3" font-family="Times,serif" font-size="14.00">ftdi_wr_n</text>
</g>
<!-- n25 -->
<g id="node14" class="node">
<title>n25</title>
<polygon fill="none" stroke="black" points="638.8,-829.54 638.8,-844.46 609.04,-855 566.96,-855 537.2,-844.46 537.2,-829.54 566.96,-819 609.04,-819 638.8,-829.54"/>
<text text-anchor="middle" x="588" y="-833.3" font-family="Times,serif" font-size="14.00">ftdi_txe_n</text>
</g>
<!-- n25&#45;&gt;c43 -->
<g id="edge29" class="edge">
<title>n25:e&#45;&gt;c43:w</title>
<path fill="none" stroke="#7570b3" d="M640,-837C679.61,-837 686.63,-807.76 720.64,-802.73"/>
<polygon fill="#7570b3" stroke="#7570b3" points="721.27,-806.2 731,-802 720.78,-799.21 721.27,-806.2"/>
</g>
<!-- n26 -->
<g id="node15" class="node">
<title>n26</title>
<polygon fill="none" stroke="black" points="641.43,-883.54 641.43,-898.46 610.13,-909 565.87,-909 534.57,-898.46 534.57,-883.54 565.87,-873 610.13,-873 641.43,-883.54"/>
<text text-anchor="middle" x="588" y="-887.3" font-family="Times,serif" font-size="14.00">ftdi_clkout</text>
</g>
<!-- n26&#45;&gt;c43 -->
<g id="edge30" class="edge">
<title>n26:e&#45;&gt;c43:w</title>
<path fill="none" stroke="#666666" d="M643,-891C669.04,-891 674.3,-879.8 695,-864 710.38,-852.26 708.88,-833.54 720.86,-827.19"/>
<polygon fill="#666666" stroke="#666666" points="721.96,-830.53 731,-825 720.49,-823.69 721.96,-830.53"/>
</g>
<!-- n27 -->
<g id="node16" class="node">
<title>n27</title>
<polygon fill="none" stroke="black" points="906.22,-977.54 906.22,-992.46 869.48,-1003 817.52,-1003 780.78,-992.46 780.78,-977.54 817.52,-967 869.48,-967 906.22,-977.54"/>
<text text-anchor="middle" x="843.5" y="-981.3" font-family="Times,serif" font-size="14.00">ws2812_dout</text>
</g>
<!-- n28 -->
<g id="node17" class="node">
<title>n28</title>
<polygon fill="none" stroke="black" points="1412.49,-660.54 1412.49,-675.46 1396.67,-686 1374.31,-686 1358.49,-675.46 1358.49,-660.54 1374.31,-650 1396.67,-650 1412.49,-660.54"/>
<text text-anchor="middle" x="1385.49" y="-664.3" font-family="Times,serif" font-size="14.00">test</text>
</g>
<!-- n29 -->
<g id="node18" class="node">
<title>n29</title>
<polygon fill="none" stroke="black" points="1080.54,-591.54 1080.54,-606.46 1057.52,-617 1024.97,-617 1001.95,-606.46 1001.95,-591.54 1024.97,-581 1057.52,-581 1080.54,-591.54"/>
<text text-anchor="middle" x="1041.24" y="-595.3" font-family="Times,serif" font-size="14.00">ext_clk</text>
</g>
<!-- c52 -->
<g id="node35" class="node">
<title>c52</title>
<polygon fill="none" stroke="black" points="1141.49,-515 1141.49,-561 1305.49,-561 1305.49,-515 1141.49,-515"/>
<text text-anchor="middle" x="1172.99" y="-534.3" font-family="Times,serif" font-size="14.00">clock_in</text>
<polyline fill="none" stroke="black" points="1204.49,-515 1204.49,-561 "/>
<text text-anchor="middle" x="1219.99" y="-541.8" font-family="Times,serif" font-size="14.00">pll</text>
<text text-anchor="middle" x="1219.99" y="-526.8" font-family="Times,serif" font-size="14.00">pll</text>
<polyline fill="none" stroke="black" points="1235.49,-515 1235.49,-561 "/>
<text text-anchor="middle" x="1270.49" y="-545.8" font-family="Times,serif" font-size="14.00">clock_out</text>
<polyline fill="none" stroke="black" points="1235.49,-538 1305.49,-538 "/>
<text text-anchor="middle" x="1270.49" y="-522.8" font-family="Times,serif" font-size="14.00">locked</text>
</g>
<!-- n29&#45;&gt;c52 -->
<g id="edge36" class="edge">
<title>n29:e&#45;&gt;c52:w</title>
<path fill="none" stroke="#a6761d" d="M1081.24,-599C1115.2,-599 1105.46,-549.76 1130.54,-539.76"/>
<polygon fill="#a6761d" stroke="#a6761d" points="1131.25,-543.19 1140.49,-538 1130.03,-536.29 1131.25,-543.19"/>
</g>
<!-- x10 -->
<g id="node41" class="node">
<title>x10</title>
<path fill="none" stroke="#666666" d="M1203.99,-580C1203.99,-580 1242.99,-580 1242.99,-580 1248.99,-580 1254.99,-586 1254.99,-592 1254.99,-592 1254.99,-604 1254.99,-604 1254.99,-610 1248.99,-616 1242.99,-616 1242.99,-616 1203.99,-616 1203.99,-616 1197.99,-616 1191.99,-610 1191.99,-604 1191.99,-604 1191.99,-592 1191.99,-592 1191.99,-586 1197.99,-580 1203.99,-580"/>
<text text-anchor="middle" x="1223.49" y="-594.3" font-family="Times,serif" font-size="14.00" fill="#666666">0:0 &#45; 0:0</text>
</g>
<!-- n29&#45;&gt;x10 -->
<g id="edge37" class="edge">
<title>n29:e&#45;&gt;x10:w</title>
<path fill="none" stroke="#a6761d" d="M1081.24,-599C1126.2,-599 1139.93,-598.14 1180.25,-598.02"/>
<polygon fill="#a6761d" stroke="#a6761d" points="1180.49,-601.52 1190.49,-598 1180.48,-594.52 1180.49,-601.52"/>
</g>
<!-- c33 -->
<g id="node19" class="node">
<title>c33</title>
<polygon fill="none" stroke="black" points="316,-1022 316,-1068 445,-1068 445,-1022 316,-1022"/>
<text text-anchor="middle" x="329" y="-1052.8" font-family="Times,serif" font-size="14.00">A</text>
<polyline fill="none" stroke="black" points="316,-1045 342,-1045 "/>
<text text-anchor="middle" x="329" y="-1029.8" font-family="Times,serif" font-size="14.00">B</text>
<polyline fill="none" stroke="black" points="342,-1022 342,-1068 "/>
<text text-anchor="middle" x="380.5" y="-1048.8" font-family="Times,serif" font-size="14.00">$7</text>
<text text-anchor="middle" x="380.5" y="-1033.8" font-family="Times,serif" font-size="14.00">$logic_and</text>
<polyline fill="none" stroke="black" points="419,-1022 419,-1068 "/>
<text text-anchor="middle" x="432" y="-1041.3" font-family="Times,serif" font-size="14.00">Y</text>
</g>
<!-- c38 -->
<g id="node22" class="node">
<title>c38</title>
<polygon fill="none" stroke="black" points="481,-927.5 481,-1042.5 695,-1042.5 695,-927.5 481,-927.5"/>
<text text-anchor="middle" x="514" y="-1027.3" font-family="Times,serif" font-size="14.00">blue</text>
<polyline fill="none" stroke="black" points="481,-1019.5 547,-1019.5 "/>
<text text-anchor="middle" x="514" y="-1004.3" font-family="Times,serif" font-size="14.00">green</text>
<polyline fill="none" stroke="black" points="481,-996.5 547,-996.5 "/>
<text text-anchor="middle" x="514" y="-981.3" font-family="Times,serif" font-size="14.00">red</text>
<polyline fill="none" stroke="black" points="481,-973.5 547,-973.5 "/>
<text text-anchor="middle" x="514" y="-958.3" font-family="Times,serif" font-size="14.00">sys_clk</text>
<polyline fill="none" stroke="black" points="481,-950.5 547,-950.5 "/>
<text text-anchor="middle" x="514" y="-935.3" font-family="Times,serif" font-size="14.00">sys_reset</text>
<polyline fill="none" stroke="black" points="547,-927.5 547,-1042.5 "/>
<text text-anchor="middle" x="576.5" y="-988.8" font-family="Times,serif" font-size="14.00">ws2812</text>
<text text-anchor="middle" x="576.5" y="-973.8" font-family="Times,serif" font-size="14.00">ws2812</text>
<polyline fill="none" stroke="black" points="606,-927.5 606,-1042.5 "/>
<text text-anchor="middle" x="650.5" y="-981.3" font-family="Times,serif" font-size="14.00">ws2812_dout</text>
</g>
<!-- c33&#45;&gt;c38 -->
<g id="edge22" class="edge">
<title>c33:e&#45;&gt;c38:w</title>
<path fill="none" stroke="#e6ab02" d="M445,-1045C463.82,-1045 460.55,-1020.1 471.43,-1011.15"/>
<polygon fill="#e6ab02" stroke="#e6ab02" points="472.6,-1014.46 481,-1008 470.41,-1007.81 472.6,-1014.46"/>
</g>
<!-- c34 -->
<g id="node20" class="node">
<title>c34</title>
<polygon fill="none" stroke="black" points="154,-998 154,-1036 280,-1036 280,-998 154,-998"/>
<text text-anchor="middle" x="167" y="-1013.3" font-family="Times,serif" font-size="14.00">A</text>
<polyline fill="none" stroke="black" points="180,-998 180,-1036 "/>
<text text-anchor="middle" x="217" y="-1020.8" font-family="Times,serif" font-size="14.00">$6</text>
<text text-anchor="middle" x="217" y="-1005.8" font-family="Times,serif" font-size="14.00">$logic_not</text>
<polyline fill="none" stroke="black" points="254,-998 254,-1036 "/>
<text text-anchor="middle" x="267" y="-1013.3" font-family="Times,serif" font-size="14.00">Y</text>
</g>
<!-- c34&#45;&gt;c33 -->
<g id="edge38" class="edge">
<title>c34:e&#45;&gt;c33:w</title>
<path fill="none" stroke="#e6ab02" d="M280,-1017C293.41,-1017 297.12,-1026.38 305.99,-1030.78"/>
<polygon fill="#e6ab02" stroke="#e6ab02" points="305.48,-1034.25 316,-1033 307,-1027.41 305.48,-1034.25"/>
</g>
<!-- v0 -->
<g id="node21" class="node">
<title>v0</title>
<ellipse fill="none" stroke="black" cx="380.5" cy="-1105" rx="27" ry="18"/>
<text text-anchor="middle" x="380.5" y="-1101.3" font-family="Times,serif" font-size="14.00">1&#39;0</text>
</g>
<!-- v0&#45;&gt;c38 -->
<g id="edge43" class="edge">
<title>v0:e&#45;&gt;c38:w</title>
<path fill="none" stroke="#d95f02" d="M408.5,-1105C428.68,-1105 430.61,-1092.15 445,-1078 460.83,-1062.43 456.84,-1039.68 471.02,-1032.94"/>
<polygon fill="#d95f02" stroke="#d95f02" points="471.85,-1036.35 481,-1031 470.52,-1029.48 471.85,-1036.35"/>
</g>
<!-- c38&#45;&gt;n27 -->
<g id="edge31" class="edge">
<title>c38:e&#45;&gt;n27:w</title>
<path fill="none" stroke="#a6761d" d="M695,-985C728.89,-985 739.84,-985 769.25,-985"/>
<polygon fill="#a6761d" stroke="#a6761d" points="769.5,-988.5 779.5,-985 769.5,-981.5 769.5,-988.5"/>
</g>
<!-- c43&#45;&gt;n18 -->
<g id="edge17" class="edge">
<title>c43:e&#45;&gt;n18:w</title>
<path fill="none" stroke="#1b9e77" d="M956,-750C981.31,-750 989.99,-746.96 1011.01,-746.18"/>
<polygon fill="#1b9e77" stroke="#1b9e77" points="1011.31,-749.68 1021.24,-746 1011.18,-742.68 1011.31,-749.68"/>
</g>
<!-- c43&#45;&gt;n19 -->
<g id="edge20" class="edge">
<title>c43:e&#45;&gt;n19:w</title>
<path fill="none" stroke="#e6ab02" d="M956,-715C1033.29,-715 949.76,-560.56 1011.97,-546.09"/>
<polygon fill="#e6ab02" stroke="#e6ab02" points="1012.67,-549.53 1022.24,-545 1011.93,-542.57 1012.67,-549.53"/>
</g>
<!-- c43&#45;&gt;n23 -->
<g id="edge27" class="edge">
<title>c43:e&#45;&gt;n23:w</title>
<path fill="none" stroke="#1b9e77" stroke-width="3" d="M956,-819C1041.36,-819 916.67,-999.43 983.98,-1014.94"/>
<polygon fill="#1b9e77" stroke="#1b9e77" stroke-width="3" points="983.94,-1018.45 994.24,-1016 984.66,-1011.49 983.94,-1018.45"/>
</g>
<!-- c43&#45;&gt;n24 -->
<g id="edge28" class="edge">
<title>c43:e&#45;&gt;n24:w</title>
<path fill="none" stroke="#1b9e77" d="M956,-785C969.27,-785 973.16,-793.79 982.04,-797.91"/>
<polygon fill="#1b9e77" stroke="#1b9e77" points="981.49,-801.38 992,-800 982.93,-794.53 981.49,-801.38"/>
</g>
<!-- v1 -->
<g id="node26" class="node">
<title>v1</title>
<ellipse fill="none" stroke="black" cx="588" cy="-41" rx="27" ry="18"/>
<text text-anchor="middle" x="588" y="-37.3" font-family="Times,serif" font-size="14.00">1</text>
</g>
<!-- v1&#45;&gt;c44 -->
<g id="edge44" class="edge">
<title>v1:e&#45;&gt;c44:w</title>
<path fill="none" stroke="#d95f02" stroke-width="3" d="M616,-41C693.54,-41 711.95,-74.89 784.4,-77.8"/>
<polygon fill="#d95f02" stroke="#d95f02" stroke-width="3" points="784.43,-81.3 794.5,-78 784.57,-74.3 784.43,-81.3"/>
</g>
<!-- x7 -->
<g id="node37" class="node">
<title>x7</title>
<path fill="none" stroke="#666666" d="M1021.74,-129C1021.74,-129 1060.74,-129 1060.74,-129 1066.74,-129 1072.74,-135 1072.74,-141 1072.74,-141 1072.74,-153 1072.74,-153 1072.74,-159 1066.74,-165 1060.74,-165 1060.74,-165 1021.74,-165 1021.74,-165 1015.74,-165 1009.74,-159 1009.74,-153 1009.74,-153 1009.74,-141 1009.74,-141 1009.74,-135 1015.74,-129 1021.74,-129"/>
<text text-anchor="middle" x="1041.24" y="-143.3" font-family="Times,serif" font-size="14.00" fill="#666666">0:0 &#45; 0:0</text>
</g>
<!-- c44&#45;&gt;x7 -->
<g id="edge39" class="edge">
<title>c44:e&#45;&gt;x7:w</title>
<path fill="none" stroke="#1b9e77" stroke-width="3" d="M892.5,-90C904.88,-90 971.46,-132.48 998.66,-144.09"/>
<polygon fill="#1b9e77" stroke="#1b9e77" stroke-width="3" points="997.66,-147.45 1008.24,-147 999.69,-140.75 997.66,-147.45"/>
</g>
<!-- v2 -->
<g id="node28" class="node">
<title>v2</title>
<ellipse fill="none" stroke="black" cx="588" cy="-279" rx="27" ry="18"/>
<text text-anchor="middle" x="588" y="-275.3" font-family="Times,serif" font-size="14.00">1</text>
</g>
<!-- v2&#45;&gt;c45 -->
<g id="edge45" class="edge">
<title>v2:e&#45;&gt;c45:w</title>
<path fill="none" stroke="#e6ab02" stroke-width="3" d="M616,-279C692.15,-279 712.93,-262.58 784.11,-261.11"/>
<polygon fill="#e6ab02" stroke="#e6ab02" stroke-width="3" points="784.54,-264.6 794.5,-261 784.46,-257.6 784.54,-264.6"/>
</g>
<!-- x8 -->
<g id="node38" class="node">
<title>x8</title>
<path fill="none" stroke="#666666" d="M1021.74,-255C1021.74,-255 1060.74,-255 1060.74,-255 1066.74,-255 1072.74,-261 1072.74,-267 1072.74,-267 1072.74,-279 1072.74,-279 1072.74,-285 1066.74,-291 1060.74,-291 1060.74,-291 1021.74,-291 1021.74,-291 1015.74,-291 1009.74,-285 1009.74,-279 1009.74,-279 1009.74,-267 1009.74,-267 1009.74,-261 1015.74,-255 1021.74,-255"/>
<text text-anchor="middle" x="1041.24" y="-269.3" font-family="Times,serif" font-size="14.00" fill="#666666">0:0 &#45; 0:0</text>
</g>
<!-- c45&#45;&gt;x8 -->
<g id="edge40" class="edge">
<title>c45:e&#45;&gt;x8:w</title>
<path fill="none" stroke="#66a61e" stroke-width="3" d="M892.5,-273C940.43,-273 954.86,-273 998.21,-273"/>
<polygon fill="#66a61e" stroke="#66a61e" stroke-width="3" points="998.24,-276.5 1008.24,-273 998.24,-269.5 998.24,-276.5"/>
</g>
<!-- v3 -->
<g id="node30" class="node">
<title>v3</title>
<ellipse fill="none" stroke="black" cx="588" cy="-371" rx="27" ry="18"/>
<text text-anchor="middle" x="588" y="-367.3" font-family="Times,serif" font-size="14.00">1</text>
</g>
<!-- v3&#45;&gt;c46 -->
<g id="edge46" class="edge">
<title>v3:e&#45;&gt;c46:w</title>
<path fill="none" stroke="#1b9e77" stroke-width="3" d="M616,-371C691.77,-371 713.26,-371 784.16,-371"/>
<polygon fill="#1b9e77" stroke="#1b9e77" stroke-width="3" points="784.5,-374.5 794.5,-371 784.5,-367.5 784.5,-374.5"/>
</g>
<!-- x9 -->
<g id="node39" class="node">
<title>x9</title>
<path fill="none" stroke="#666666" d="M1021.74,-310C1021.74,-310 1060.74,-310 1060.74,-310 1066.74,-310 1072.74,-316 1072.74,-322 1072.74,-322 1072.74,-334 1072.74,-334 1072.74,-340 1066.74,-346 1060.74,-346 1060.74,-346 1021.74,-346 1021.74,-346 1015.74,-346 1009.74,-340 1009.74,-334 1009.74,-334 1009.74,-322 1009.74,-322 1009.74,-316 1015.74,-310 1021.74,-310"/>
<text text-anchor="middle" x="1041.24" y="-324.3" font-family="Times,serif" font-size="14.00" fill="#666666">7:0 &#45; 7:0</text>
</g>
<!-- c46&#45;&gt;x9 -->
<g id="edge41" class="edge">
<title>c46:e&#45;&gt;x9:w</title>
<path fill="none" stroke="#a6761d" stroke-width="3" d="M892.5,-383C945.89,-383 950.85,-334.66 998.18,-328.62"/>
<polygon fill="#a6761d" stroke="#a6761d" stroke-width="3" points="998.48,-332.11 1008.24,-328 998.05,-325.12 998.48,-332.11"/>
</g>
<!-- v4 -->
<g id="node32" class="node">
<title>v4</title>
<ellipse fill="none" stroke="black" cx="588" cy="-95" rx="27" ry="18"/>
<text text-anchor="middle" x="588" y="-91.3" font-family="Times,serif" font-size="14.00">0</text>
</g>
<!-- v4&#45;&gt;c47 -->
<g id="edge47" class="edge">
<title>v4:e&#45;&gt;c47:w</title>
<path fill="none" stroke="#66a61e" stroke-width="3" d="M616,-95C696.27,-95 713.23,-138.96 788.06,-142.74"/>
<polygon fill="#66a61e" stroke="#66a61e" stroke-width="3" points="788.42,-146.25 798.5,-143 788.59,-139.25 788.42,-146.25"/>
</g>
<!-- c47&#45;&gt;p6 -->
<g id="edge42" class="edge">
<title>c47:e&#45;&gt;p6:w</title>
<path fill="none" stroke="#7570b3" d="M888.5,-155C898.95,-155 895.05,-171.27 887.5,-178.5 859.26,-205.56 838.46,-181.92 799.5,-178.5 752.51,-174.37 741.99,-164.13 695,-160 600.25,-151.68 553.33,-98.23 481,-160 383.82,-242.99 533.18,-361.01 436,-444 398.32,-476.18 360.45,-478.11 324.5,-444 321.82,-441.45 319.67,-437.5 318.81,-433.85"/>
<polygon fill="#7570b3" stroke="#7570b3" points="321.92,-435.48 323.5,-425 315.73,-432.2 321.92,-435.48"/>
</g>
<!-- c48&#45;&gt;n21 -->
<g id="edge25" class="edge">
<title>c48:e&#45;&gt;n21:w</title>
<path fill="none" stroke="#d95f02" d="M1658.49,-484C1670.49,-484 1675.74,-484 1684.36,-484"/>
<polygon fill="#d95f02" stroke="#d95f02" points="1684.49,-487.5 1694.49,-484 1684.49,-480.5 1684.49,-487.5"/>
</g>
<!-- c52&#45;&gt;n20 -->
<g id="edge23" class="edge">
<title>c52:e&#45;&gt;n20:w</title>
<path fill="none" stroke="#d95f02" d="M1306.49,-526C1325.88,-526 1331.58,-515.52 1346.48,-512.08"/>
<polygon fill="#d95f02" stroke="#d95f02" points="1346.92,-515.55 1356.49,-511 1346.17,-508.59 1346.92,-515.55"/>
</g>
<!-- c52&#45;&gt;n22 -->
<g id="edge26" class="edge">
<title>c52:e&#45;&gt;n22:w</title>
<path fill="none" stroke="#d95f02" d="M1306.49,-550C1328.8,-550 1335.45,-560.88 1353.11,-564.11"/>
<polygon fill="#d95f02" stroke="#d95f02" points="1353.23,-567.63 1363.49,-565 1353.83,-560.66 1353.23,-567.63"/>
</g>
<!-- p5 -->
<g id="node36" class="node">
<title>p5</title>
<path fill="none" stroke="black" d="M106,-558C106,-558 12,-558 12,-558 6,-558 0,-552 0,-546 0,-546 0,-532 0,-532 0,-526 6,-520 12,-520 12,-520 106,-520 106,-520 112,-520 118,-526 118,-532 118,-532 118,-546 118,-546 118,-552 112,-558 106,-558"/>
<text text-anchor="middle" x="59" y="-542.8" font-family="Times,serif" font-size="14.00">PROC $8</text>
<text text-anchor="middle" x="59" y="-527.8" font-family="Times,serif" font-size="14.00">main.v:45.7&#45;45.19</text>
</g>
<!-- p5&#45;&gt;n14 -->
<g id="edge1" class="edge">
<title>p5:e&#45;&gt;n14:w</title>
<path fill="none" stroke="#e7298a" d="M118,-539C150.34,-539 160.89,-539 188.81,-539"/>
<polygon fill="#e7298a" stroke="#e7298a" points="189,-542.5 199,-539 189,-535.5 189,-542.5"/>
</g>
<!-- x7&#45;&gt;p6 -->
<g id="edge48" class="edge">
<title>x7:e&#45;&gt;p6:w</title>
<path fill="none" stroke="#7570b3" d="M1074.24,-147C1082.48,-147 1078.68,-159.32 1073.24,-165.5 1038.24,-205.27 1008.31,-178.63 956,-187 929.7,-191.21 500.7,-234.07 481,-252 416.18,-310.99 504.68,-389.55 436,-444 397.17,-474.78 360.45,-478.11 324.5,-444 321.82,-441.45 319.67,-437.5 318.81,-433.85"/>
<polygon fill="#7570b3" stroke="#7570b3" points="321.92,-435.48 323.5,-425 315.73,-432.2 321.92,-435.48"/>
</g>
<!-- x8&#45;&gt;p6 -->
<g id="edge49" class="edge">
<title>x8:e&#45;&gt;p6:w</title>
<path fill="none" stroke="#66a61e" d="M1074.24,-273C1082.48,-273 1078.92,-285.53 1073.24,-291.5 1060.73,-304.65 1010.02,-297.81 992,-300 975.96,-301.95 972.06,-303.23 956,-305 850.73,-316.62 567.51,-282.9 481,-344 441.19,-372.12 476.93,-417.54 436,-444 394.39,-470.91 360.45,-478.11 324.5,-444 321.82,-441.45 319.67,-437.5 318.81,-433.85"/>
<polygon fill="#66a61e" stroke="#66a61e" points="321.92,-435.48 323.5,-425 315.73,-432.2 321.92,-435.48"/>
</g>
<!-- x9&#45;&gt;p6 -->
<g id="edge50" class="edge">
<title>x9:e&#45;&gt;p6:w</title>
<path fill="none" stroke="#66a61e" stroke-width="3" d="M1074.24,-328C1082.48,-328 1078.88,-340.5 1073.24,-346.5 1048.35,-373 1022.61,-336.39 992,-356 966.13,-372.57 981.66,-398.12 956,-415 779.1,-531.38 692.68,-457.41 481,-452 411.38,-450.22 373.78,-493.21 324.5,-444 321.98,-441.48 319.9,-437.7 318.97,-434.18"/>
<polygon fill="#66a61e" stroke="#66a61e" stroke-width="3" points="322.22,-435.52 323.5,-425 315.94,-432.42 322.22,-435.52"/>
</g>
<!-- p6&#45;&gt;n14 -->
<g id="edge2" class="edge">
<title>p6:e&#45;&gt;n14:w</title>
<path fill="none" stroke="#e7298a" d="M437.5,-425C445.96,-425 440.97,-436.82 436.5,-444 382,-531.47 333.74,-531.05 234,-557 219.38,-560.8 210.98,-567.38 200,-557 197.64,-554.76 195.7,-551.37 194.78,-548.14"/>
<polygon fill="#e7298a" stroke="#e7298a" points="197.99,-549.55 199,-539 191.63,-546.61 197.99,-549.55"/>
</g>
<!-- p6&#45;&gt;n15 -->
<g id="edge6" class="edge">
<title>p6:e&#45;&gt;n15:w</title>
<path fill="none" stroke="#7570b3" stroke-width="3" d="M437.5,-425C470.44,-425 454.85,-464.97 481,-485 509.86,-507.11 522.68,-515.48 554.87,-516.81"/>
<polygon fill="#7570b3" stroke="#7570b3" stroke-width="3" points="554.94,-520.31 565,-517 555.07,-513.31 554.94,-520.31"/>
</g>
<!-- p6&#45;&gt;n16 -->
<g id="edge9" class="edge">
<title>p6:e&#45;&gt;n16:w</title>
<path fill="none" stroke="#d95f02" d="M437.5,-425C531.07,-425 422.33,-291.89 481,-219 500.41,-194.88 514.21,-188.31 541.68,-187.19"/>
<polygon fill="#d95f02" stroke="#d95f02" points="542.07,-190.68 552,-187 541.94,-183.68 542.07,-190.68"/>
</g>
<!-- p6&#45;&gt;n17 -->
<g id="edge14" class="edge">
<title>p6:e&#45;&gt;n17:w</title>
<path fill="none" stroke="#1b9e77" stroke-width="3" d="M437.5,-425C485.32,-425 499.73,-425 542.99,-425"/>
<polygon fill="#1b9e77" stroke="#1b9e77" stroke-width="3" points="543,-428.5 553,-425 543,-421.5 543,-428.5"/>
</g>
<!-- x10&#45;&gt;n28 -->
<g id="edge32" class="edge">
<title>x10:e&#45;&gt;n28:w</title>
<path fill="none" stroke="#7570b3" d="M1256.49,-598C1288.49,-598 1294.64,-612.13 1320.49,-631 1335.9,-642.25 1335.27,-659.94 1347.39,-665.94"/>
<polygon fill="#7570b3" stroke="#7570b3" points="1346.99,-669.43 1357.49,-668 1348.39,-662.57 1346.99,-669.43"/>
</g>
<!-- x11 -->
<g id="node42" class="node">
<title>x11</title>
<path fill="none" stroke="#666666" d="M1203.99,-674C1203.99,-674 1242.99,-674 1242.99,-674 1248.99,-674 1254.99,-680 1254.99,-686 1254.99,-686 1254.99,-698 1254.99,-698 1254.99,-704 1248.99,-710 1242.99,-710 1242.99,-710 1203.99,-710 1203.99,-710 1197.99,-710 1191.99,-704 1191.99,-698 1191.99,-698 1191.99,-686 1191.99,-686 1191.99,-680 1197.99,-674 1203.99,-674"/>
<text text-anchor="middle" x="1223.49" y="-688.3" font-family="Times,serif" font-size="14.00" fill="#666666">0:0 &#45; 1:1</text>
</g>
<!-- x11&#45;&gt;n28 -->
<g id="edge33" class="edge">
<title>x11:e&#45;&gt;n28:w</title>
<path fill="none" stroke="#7570b3" d="M1256.49,-692C1299.02,-692 1309.76,-671.6 1347.32,-668.42"/>
<polygon fill="#7570b3" stroke="#7570b3" points="1347.64,-671.91 1357.49,-668 1347.35,-664.91 1347.64,-671.91"/>
</g>
<!-- x12&#45;&gt;n28 -->
<g id="edge34" class="edge">
<title>x12:e&#45;&gt;n28:w</title>
<path fill="none" stroke="#7570b3" d="M413.5,-571C606.98,-571 649.02,-645 842.5,-645 842.5,-645 842.5,-645 1042.24,-645 1166.2,-645 1197.02,-653.11 1320.49,-664 1332.97,-665.1 1338.29,-666.83 1347.33,-667.6"/>
<polygon fill="#7570b3" stroke="#7570b3" points="1347.36,-671.11 1357.49,-668 1347.63,-664.11 1347.36,-671.11"/>
</g>
<!-- x13&#45;&gt;n28 -->
<g id="edge35" class="edge">
<title>x13:e&#45;&gt;n28:w</title>
<path fill="none" stroke="#7570b3" d="M1256.49,-747C1287.54,-747 1296.3,-738.47 1320.49,-719 1339.06,-704.05 1332.53,-677.58 1347.47,-670.05"/>
<polygon fill="#7570b3" stroke="#7570b3" points="1348.39,-673.43 1357.49,-668 1346.99,-666.57 1348.39,-673.43"/>
</g>
<!-- n12_001 -->
<g id="node45" class="node">
<title>n12_001</title>
<text text-anchor="middle" x="217" y="-1069.3" font-family="Times,serif" font-size="14.00">green_led</text>
</g>
<!-- n12_001&#45;&gt;c33 -->
<g id="edge51" class="edge">
<title>n12_001:e&#45;&gt;c33:w</title>
<path fill="none" stroke="#7570b3" d="M245,-1073C273.68,-1073 281.89,-1060.42 305.93,-1057.57"/>
<polygon fill="#7570b3" stroke="#7570b3" points="306.21,-1061.06 316,-1057 305.82,-1054.07 306.21,-1061.06"/>
</g>
<!-- n12_002 -->
<g id="node46" class="node">
<title>n12_002</title>
<text text-anchor="middle" x="1041.24" y="-487.3" font-family="Times,serif" font-size="14.00">green_led</text>
</g>
<!-- n12_002&#45;&gt;c42 -->
<g id="edge52" class="edge">
<title>n12_002:e&#45;&gt;c42:w</title>
<path fill="none" stroke="#7570b3" d="M1069.24,-491C1094.15,-491 1097.31,-468.44 1116.44,-462.45"/>
<polygon fill="#7570b3" stroke="#7570b3" points="1117.09,-465.89 1126.49,-461 1116.09,-458.96 1117.09,-465.89"/>
</g>
<!-- n13_001 -->
<g id="node47" class="node">
<title>n13_001</title>
<text text-anchor="middle" x="59" y="-1013.3" font-family="Times,serif" font-size="14.00">red_led</text>
</g>
<!-- n13_001&#45;&gt;c34 -->
<g id="edge53" class="edge">
<title>n13_001:e&#45;&gt;c34:w</title>
<path fill="none" stroke="#e7298a" d="M81,-1017C109.77,-1017 119.41,-1017 143.84,-1017"/>
<polygon fill="#e7298a" stroke="#e7298a" points="144,-1020.5 154,-1017 144,-1013.5 144,-1020.5"/>
</g>
<!-- n13_002 -->
<g id="node48" class="node">
<title>n13_002</title>
<text text-anchor="middle" x="380.5" y="-981.3" font-family="Times,serif" font-size="14.00">red_led</text>
</g>
<!-- n13_002&#45;&gt;c38 -->
<g id="edge54" class="edge">
<title>n13_002:e&#45;&gt;c38:w</title>
<path fill="none" stroke="#e7298a" d="M402.5,-985C433.71,-985 443.98,-985 470.77,-985"/>
<polygon fill="#e7298a" stroke="#e7298a" points="471,-988.5 481,-985 471,-981.5 471,-988.5"/>
</g>
<!-- n13_003 -->
<g id="node49" class="node">
<title>n13_003</title>
<text text-anchor="middle" x="1041.24" y="-958.3" font-family="Times,serif" font-size="14.00">red_led</text>
</g>
<!-- n13_003&#45;&gt;c41 -->
<g id="edge55" class="edge">
<title>n13_003:e&#45;&gt;c41:w</title>
<path fill="none" stroke="#e7298a" d="M1063.24,-962C1094.2,-962 1092.61,-925.51 1116.45,-917.53"/>
<polygon fill="#e7298a" stroke="#e7298a" points="1117.13,-920.97 1126.49,-916 1116.08,-914.05 1117.13,-920.97"/>
</g>
<!-- n21_001 -->
<g id="node50" class="node">
<title>n21_001</title>
<text text-anchor="middle" x="380.5" y="-873.3" font-family="Times,serif" font-size="14.00">sys_reset</text>
</g>
<!-- n21_001&#45;&gt;c38 -->
<g id="edge56" class="edge">
<title>n21_001:e&#45;&gt;c38:w</title>
<path fill="none" stroke="#d95f02" d="M406.5,-877C427.4,-877 428.9,-890.67 445,-904 458.97,-915.56 459.27,-931.44 470.86,-936.99"/>
<polygon fill="#d95f02" stroke="#d95f02" points="470.51,-940.49 481,-939 471.87,-933.62 470.51,-940.49"/>
</g>
<!-- n21_002 -->
<g id="node51" class="node">
<title>n21_002</title>
<text text-anchor="middle" x="1041.24" y="-850.3" font-family="Times,serif" font-size="14.00">sys_reset</text>
</g>
<!-- n21_002&#45;&gt;c41 -->
<g id="edge57" class="edge">
<title>n21_002:e&#45;&gt;c41:w</title>
<path fill="none" stroke="#d95f02" d="M1067.24,-854C1090.69,-854 1097.57,-865.18 1116.48,-868.24"/>
<polygon fill="#d95f02" stroke="#d95f02" points="1116.25,-871.73 1126.49,-869 1116.78,-864.75 1116.25,-871.73"/>
</g>
<!-- n21_003 -->
<g id="node52" class="node">
<title>n21_003</title>
<text text-anchor="middle" x="1041.24" y="-379.3" font-family="Times,serif" font-size="14.00">sys_reset</text>
</g>
<!-- n21_003&#45;&gt;c42 -->
<g id="edge58" class="edge">
<title>n21_003:e&#45;&gt;c42:w</title>
<path fill="none" stroke="#d95f02" d="M1067.24,-383C1093.13,-383 1096.32,-406.52 1116.36,-412.59"/>
<polygon fill="#d95f02" stroke="#d95f02" points="1116.1,-416.09 1126.49,-414 1117.07,-409.15 1116.1,-416.09"/>
</g>
<!-- n21_004 -->
<g id="node53" class="node">
<title>n21_004</title>
<text text-anchor="middle" x="588" y="-725.3" font-family="Times,serif" font-size="14.00">sys_reset</text>
</g>
<!-- n21_004&#45;&gt;c43 -->
<g id="edge59" class="edge">
<title>n21_004:e&#45;&gt;c43:w</title>
<path fill="none" stroke="#d95f02" d="M614,-729C663.73,-729 676.15,-751.66 720.93,-754.67"/>
<polygon fill="#d95f02" stroke="#d95f02" points="720.89,-758.17 731,-755 721.12,-751.18 720.89,-758.17"/>
</g>
<!-- n21_005 -->
<g id="node54" class="node">
<title>n21_005</title>
<text text-anchor="middle" x="217" y="-448.3" font-family="Times,serif" font-size="14.00">sys_reset</text>
</g>
<!-- n21_005&#45;&gt;p6 -->
<g id="edge60" class="edge">
<title>n21_005:e&#45;&gt;p6:w</title>
<path fill="none" stroke="#d95f02" d="M243,-452C277.05,-452 284.47,-430.02 313.32,-425.72"/>
<polygon fill="#d95f02" stroke="#d95f02" points="313.77,-429.2 323.5,-425 313.28,-422.22 313.77,-429.2"/>
</g>
<!-- n22_001 -->
<g id="node55" class="node">
<title>n22_001</title>
<text text-anchor="middle" x="380.5" y="-927.3" font-family="Times,serif" font-size="14.00">sys_clk</text>
</g>
<!-- n22_001&#45;&gt;c38 -->
<g id="edge61" class="edge">
<title>n22_001:e&#45;&gt;c38:w</title>
<path fill="none" stroke="#d95f02" d="M402.5,-931C436.35,-931 442.49,-956.24 470.92,-961.17"/>
<polygon fill="#d95f02" stroke="#d95f02" points="470.75,-964.67 481,-962 471.32,-957.69 470.75,-964.67"/>
</g>
<!-- n22_002 -->
<g id="node56" class="node">
<title>n22_002</title>
<text text-anchor="middle" x="1041.24" y="-904.3" font-family="Times,serif" font-size="14.00">sys_clk</text>
</g>
<!-- n22_002&#45;&gt;c41 -->
<g id="edge62" class="edge">
<title>n22_002:e&#45;&gt;c41:w</title>
<path fill="none" stroke="#d95f02" d="M1063.24,-908C1088.5,-908 1095.75,-895.86 1116.36,-892.73"/>
<polygon fill="#d95f02" stroke="#d95f02" points="1116.77,-896.21 1126.49,-892 1116.26,-889.23 1116.77,-896.21"/>
</g>
<!-- n22_003 -->
<g id="node57" class="node">
<title>n22_003</title>
<text text-anchor="middle" x="1041.24" y="-433.3" font-family="Times,serif" font-size="14.00">sys_clk</text>
</g>
<!-- n22_003&#45;&gt;c42 -->
<g id="edge63" class="edge">
<title>n22_003:e&#45;&gt;c42:w</title>
<path fill="none" stroke="#d95f02" d="M1063.24,-437C1087.62,-437 1096.14,-437 1116.31,-437"/>
<polygon fill="#d95f02" stroke="#d95f02" points="1116.49,-440.5 1126.49,-437 1116.49,-433.5 1116.49,-440.5"/>
</g>
<!-- n22_004 -->
<g id="node58" class="node">
<title>n22_004</title>
<text text-anchor="middle" x="588" y="-779.3" font-family="Times,serif" font-size="14.00">sys_clk</text>
</g>
<!-- n22_004&#45;&gt;c43 -->
<g id="edge64" class="edge">
<title>n22_004:e&#45;&gt;c43:w</title>
<path fill="none" stroke="#d95f02" d="M610,-783C660.23,-783 675.24,-779.51 720.79,-779.05"/>
<polygon fill="#d95f02" stroke="#d95f02" points="721.02,-782.55 731,-779 720.98,-775.55 721.02,-782.55"/>
</g>
<!-- n22_005 -->
<g id="node59" class="node">
<title>n22_005</title>
<text text-anchor="middle" x="1385.49" y="-453.3" font-family="Times,serif" font-size="14.00">sys_clk</text>
</g>
<!-- n22_005&#45;&gt;c48 -->
<g id="edge65" class="edge">
<title>n22_005:e&#45;&gt;c48:w</title>
<path fill="none" stroke="#d95f02" d="M1407.49,-457C1423.78,-457 1428.59,-466.71 1440.39,-470.51"/>
<polygon fill="#d95f02" stroke="#d95f02" points="1440.08,-474 1450.49,-472 1441.11,-467.07 1440.08,-474"/>
</g>
<!-- n22_006 -->
<g id="node60" class="node">
<title>n22_006</title>
<text text-anchor="middle" x="217" y="-394.3" font-family="Times,serif" font-size="14.00">sys_clk</text>
</g>
<!-- n22_006&#45;&gt;p6 -->
<g id="edge66" class="edge">
<title>n22_006:e&#45;&gt;p6:w</title>
<path fill="none" stroke="#d95f02" d="M239,-398C274.73,-398 282.72,-420.17 313.25,-424.33"/>
<polygon fill="#d95f02" stroke="#d95f02" points="313.29,-427.84 323.5,-425 313.75,-420.86 313.29,-427.84"/>
</g>
<!-- n22_007 -->
<g id="node61" class="node">
<title>n22_007</title>
<text text-anchor="middle" x="1041.24" y="-688.3" font-family="Times,serif" font-size="14.00">sys_clk</text>
</g>
<!-- n22_007&#45;&gt;x11 -->
<g id="edge67" class="edge">
<title>n22_007:e&#45;&gt;x11:w</title>
<path fill="none" stroke="#d95f02" d="M1063.24,-692C1116.26,-692 1132,-692 1180.36,-692"/>
<polygon fill="#d95f02" stroke="#d95f02" points="1180.49,-695.5 1190.49,-692 1180.49,-688.5 1180.49,-695.5"/>
</g>
</g>
</svg>
